<svg width="68" height="87" viewBox="0 0 68 87" fill="none" xmlns="http://www.w3.org/2000/svg">
<g clip-path="url(#clip0_1_411)">
<path d="M7.249 40.7766C24.0217 39.0238 40.9384 41.7144 57.67 39.29C58.4516 39.1753 58.1184 37.9918 57.3409 38.1064C40.7286 40.5104 23.9065 37.8075 7.249 39.548C6.46734 39.6299 6.45912 40.8585 7.249 40.7766Z" fill="#727272"/>
<path d="M7.08459 39.5726C5.44722 40.0804 5.65292 42.21 6.52097 43.3403C7.94441 45.1913 11.141 45.2323 13.2268 45.0357C14.0125 44.962 14.0166 43.7334 13.2268 43.8071C11.8774 43.9341 10.4786 43.9218 9.16626 43.5368C8.48334 43.3362 7.76339 43.0536 7.37256 42.4147C7.17098 42.083 6.78426 40.9527 7.4137 40.7602C8.17068 40.5227 7.84567 39.3351 7.08459 39.5726Z" fill="#727272"/>
<path d="M54.7821 39.6748C55.6501 39.6216 56.4894 39.4742 57.3533 39.3595C58.7233 39.1752 59.4268 39.5438 59.6654 40.9771C59.8628 42.1689 59.11 42.517 58.0486 42.8528C57.5467 43.0125 57.0201 43.1108 56.5017 43.2132C55.1153 43.4834 53.7248 43.6186 52.3137 43.6677C51.5238 43.6964 51.5197 44.925 52.3137 44.8963C54.7204 44.8103 61.4796 44.7202 61.2164 40.9321C61.1505 39.9861 60.2331 38.6797 59.3733 38.2538C58.0897 37.6149 56.0903 38.3643 54.778 38.4462C53.9922 38.4954 53.9881 39.724 54.7821 39.6748Z" fill="#727272"/>
<path d="M9.05503 44.7734C8.88636 47.3739 5.92429 48.8441 4.35275 50.6297C3.11855 52.0344 2.14765 53.652 1.44416 55.3761C-0.069782 59.0701 -0.357761 63.2104 0.411554 67.105C1.99544 75.0949 8.05945 81.6883 15.6333 84.5181C16.3779 84.7966 16.6988 83.609 15.9624 83.3346C8.09647 80.3942 1.98309 73.0268 1.30017 64.5782C0.975169 60.5648 1.82676 56.3876 4.07711 53.009C5.94486 50.2079 10.0547 48.4141 10.2892 44.7734C10.3386 43.9871 9.1044 43.9871 9.05503 44.7734Z" fill="#727272"/>
<path d="M55.823 44.2493C55.823 47.4805 58.1803 49.5076 60.5787 51.3136C62.6398 52.8617 64.236 54.3687 65.2522 56.7972C66.1367 58.9063 66.6263 61.1833 66.7373 63.4643C67.1405 71.8556 62.2449 79.6448 54.7204 83.31C54.0087 83.6581 54.6299 84.7188 55.3416 84.3707C62.3313 80.9675 67.2598 74.0506 67.918 66.3024C68.2513 62.3832 67.5684 58.0668 65.569 54.6308C63.368 50.8427 57.0571 49.1063 57.053 44.2493C57.0571 43.4589 55.823 43.4589 55.823 44.2493Z" fill="#727272"/>
<path d="M15.267 83.6172C14.4689 85.3823 15.9006 86.9058 17.6778 86.9877C19.6073 87.0819 21.6437 86.6355 23.5773 86.5536C25.8194 86.4553 28.0615 86.4512 30.3036 86.4839C38.6715 86.6109 47.0352 87.2457 55.366 86.1154C55.6499 86.0785 55.7939 85.7673 55.8185 85.5215C55.8844 84.8335 55.8268 84.3257 55.6252 83.6787C55.3907 82.9251 54.2018 83.2487 54.4362 84.0063C54.6461 84.5018 54.6954 85.0096 54.5843 85.5215C54.7366 85.325 54.8847 85.1284 55.0369 84.9277C48.5409 85.8082 41.9873 85.5871 35.4543 85.3823C32.2866 85.284 29.1147 85.1939 25.9469 85.2472C24.4988 85.2717 23.0507 85.3291 21.6026 85.4274C20.8127 85.4806 20.0269 85.5543 19.2411 85.6321C18.6611 85.6895 15.4439 86.185 16.3284 84.2274C16.6534 83.519 15.592 82.8965 15.267 83.6172Z" fill="#727272"/>
<path d="M7.08034 51.2236C2.05306 57.3788 1.66223 65.9707 6.17527 72.5231C6.39742 72.8467 6.93224 72.5395 6.71008 72.2119C2.36161 65.9011 2.66193 57.604 7.52054 51.6536C7.76326 51.3546 7.33129 50.9165 7.08034 51.2236Z" fill="#727272"/>
<path d="M7.41358 74.8042C7.81675 75.3857 8.27751 75.9222 8.79176 76.4095C9.07974 76.6798 9.51582 76.2498 9.22784 75.9754C8.75062 75.5249 8.32277 75.0335 7.94428 74.497C7.72212 74.1735 7.18731 74.4765 7.41358 74.8042Z" fill="#727272"/>
<path d="M10.8652 78.3384C11.2643 78.3384 11.2643 77.7241 10.8652 77.7241C10.4662 77.7241 10.4662 78.3384 10.8652 78.3384Z" fill="#727272"/>
<path d="M54.6297 44.2821C54.3129 45.4615 54.0414 46.6492 54.5062 47.8286C54.9382 48.9221 55.8145 49.909 56.5591 50.8141C58.3446 52.9764 61.9978 55.1592 62.1706 58.1733C62.1912 58.5664 62.8083 58.5705 62.7877 58.1733C62.6602 55.9168 60.9899 54.4712 59.4512 53.0051C58.4598 52.059 57.5259 51.0557 56.6702 49.9827C56.0942 49.2579 55.4442 48.4921 55.111 47.6198C54.7037 46.5591 54.9382 45.5148 55.2221 44.45C55.3249 44.0651 54.7284 43.9012 54.6297 44.2821Z" fill="#727272"/>
<path d="M62.438 59.5985C62.5244 60.3848 62.6108 61.1711 62.6972 61.9574C62.7383 62.3464 63.3595 62.3505 63.3143 61.9574C63.2279 61.1711 63.1415 60.3848 63.0551 59.5985C63.014 59.2095 62.3969 59.2054 62.438 59.5985Z" fill="#727272"/>
<path d="M62.4956 63.575C62.5409 63.8043 62.5039 64.0214 62.4175 64.2343C62.3557 64.3899 62.4874 64.5701 62.6314 64.6111C62.8083 64.6602 62.9482 64.5497 63.0099 64.3981C63.1374 64.0787 63.1539 63.747 63.088 63.4112C63.0181 63.0262 62.4216 63.19 62.4956 63.575Z" fill="#727272"/>
<path d="M35.7423 59.0824C37.2151 56.2976 39.9879 54.4752 43.2091 54.6349C47.0434 54.8233 51.0751 58.1446 48.3887 62.0678C46.813 64.3653 43.9826 65.8519 41.8968 67.662C39.5806 69.6728 37.4619 71.8883 35.5078 74.2554C35.0059 74.8615 35.8739 75.7338 36.3799 75.1236C39.3585 71.5156 42.7278 68.4647 46.4304 65.6144C48.9029 63.706 51.6387 60.8106 50.1371 57.4566C48.8947 54.68 45.4636 53.3162 42.5715 53.3981C39.1651 53.4964 36.2442 55.4949 34.6726 58.4599C34.3065 59.1602 35.372 59.7827 35.7423 59.0824Z" fill="#727272"/>
<path d="M35.4504 58.1282C32.8133 55.1755 29.5222 52.1328 25.2518 52.3539C22.0841 52.5177 19.3565 54.9094 18.8999 58.0586C18.3362 61.8959 21.216 65.2622 24.0218 67.4859C27.4693 70.2175 32.6693 71.1635 35.2488 74.8656C35.6972 75.5127 36.7669 74.8984 36.3143 74.2473C34.7058 71.9375 32.3649 70.7499 29.8801 69.5541C26.7205 68.0347 23.6063 66.155 21.5739 63.2228C19.3071 59.9588 19.6815 54.9667 24.0752 53.7709C28.3744 52.6037 31.9947 56.1093 34.5741 58.9964C35.1048 59.5903 35.977 58.718 35.4504 58.1282Z" fill="#727272"/>
</g>
<g clip-path="url(#clip1_1_411)">
<path d="M31.472 12.629C30.2831 14.782 28.4689 16.507 26.1405 17.4C25.2314 17.7507 24.0343 17.7303 24.1536 16.4866C24.2276 15.7118 25.0668 15.039 25.6757 14.676C26.7123 14.0562 28.0411 13.8523 29.1559 13.3711C29.8799 13.0571 29.2547 12.001 28.5347 12.315C26.5437 13.1754 24.3634 13.3793 23.2321 15.4671C22.6274 16.5844 22.4299 18.1381 23.7916 18.7742C25.2684 19.4634 27.3006 18.3501 28.5265 17.5672C30.2296 16.4825 31.5666 15.0022 32.5333 13.2447C32.92 12.5556 31.8546 11.9357 31.472 12.629Z" fill="#46A358"/>
<path d="M28.8966 12.1192C27.3992 12.2823 25.9141 12.2904 24.429 12.0131C23.886 11.9112 23.3471 11.7725 22.8205 11.6054C22.3763 11.4749 21.9484 11.3158 21.5247 11.1242C20.8953 10.3331 20.957 9.89268 21.7181 9.79482C23.9477 8.0903 27.4321 9.88045 29.6206 10.7082C30.3652 10.9896 30.6861 9.80705 29.9497 9.52976C28.045 8.80799 25.9552 7.7233 23.8613 7.95573C22.6601 8.08622 19.8915 8.6041 19.5707 10.1007C18.8302 13.5668 27.1071 13.5423 28.8966 13.3466C29.6782 13.2569 29.6864 12.0335 28.8966 12.1192Z" fill="#46A358"/>
<path d="M30.353 9.5501C28.4812 8.07802 26.8192 5.7863 26.9097 3.30292C26.9509 2.19784 27.6584 1.7289 28.6828 2.22639C29.2463 2.4996 29.6372 3.1969 29.9457 3.72294C30.6615 4.95443 30.9618 6.36127 31.2251 7.74364C31.3732 8.51434 32.5621 8.18812 32.414 7.41742C32.019 5.35405 31.4554 3.20506 29.9169 1.66365C29.0078 0.754304 27.4939 -0.28961 26.4243 0.933727C23.9231 3.79226 27.1977 8.61629 29.4808 10.4146C30.0979 10.8999 30.9782 10.0394 30.353 9.5501Z" fill="#46A358"/>
<path d="M32.3849 7.756C32.6564 5.7905 33.5203 2.05117 35.7993 1.41503C37.9179 0.827829 37.7081 4.20424 37.1157 5.32156C36.5192 6.44703 35.3468 7.50317 34.4952 8.44514C33.9687 9.02827 34.8367 9.89684 35.3673 9.30964C36.5891 7.95581 38.4156 6.40217 38.6789 4.49784C38.8846 3.02168 38.7735 0.791129 37.1321 0.138682C35.6347 -0.456675 34.1538 0.897152 33.3022 1.96146C32.0475 3.52733 31.4634 5.46836 31.1919 7.42162C31.0849 8.20048 32.2738 8.53486 32.3849 7.756Z" fill="#46A358"/>
<path d="M35.4538 9.46471C36.8895 8.274 39.5552 7.4462 41.3077 8.51866C43.5785 9.91327 40.3615 10.7492 39.3002 10.8185C38.1648 10.896 37.0294 10.8267 35.9022 10.6962C35.1165 10.6065 35.1206 11.8298 35.9022 11.9195C37.7452 12.1316 40.234 12.4048 41.9494 11.4995C43.0149 10.9368 43.7801 9.57481 43.126 8.42895C42.3937 7.14445 40.3327 6.83454 38.9957 6.87124C37.3379 6.92017 35.8446 7.5563 34.5858 8.60022C33.9728 9.10587 34.8491 9.97036 35.4538 9.46471Z" fill="#46A358"/>
<path d="M35.5853 11.8786C36.8565 12.3435 38.1194 13.0449 38.8434 14.2274C39.7485 15.7117 39.769 18.4439 37.1362 17.9341C34.8202 17.4856 33.1459 15.0471 32.6728 12.9307C32.5 12.1641 31.3111 12.4862 31.4839 13.2569C31.9035 15.1408 32.9525 16.8046 34.524 17.9586C35.7581 18.8679 37.9261 19.9526 39.3782 18.921C40.8715 17.8607 40.8715 15.6669 40.1969 14.1581C39.3988 12.3802 37.6998 11.3485 35.9227 10.6961C35.1657 10.4269 34.8449 11.6095 35.5853 11.8786Z" fill="#46A358"/>
<path d="M23.1043 15.247C19.5007 17.4001 16.8432 19.7978 16.2137 24.1121C15.5267 28.7975 16.6251 33.6949 17.6289 38.258C17.7975 39.0287 18.9864 38.7024 18.8178 37.9317C17.9292 33.8947 17.02 29.7109 17.2957 25.5556C17.596 21.0252 19.9655 18.55 23.7214 16.3072C24.4043 15.8994 23.7872 14.8392 23.1043 15.247Z" fill="#46A358"/>
<path d="M39.008 13.8645C44.0474 14.2559 47.614 18.2685 48.9674 22.8642C50.4402 27.8676 49.6174 33.1361 48.8152 38.1763C48.6918 38.947 49.8807 39.2773 50.0041 38.5025C50.9421 32.5897 51.8841 26.3099 49.4611 20.6091C47.6263 16.2908 43.817 13.0163 39.008 12.6411C38.214 12.58 38.2181 13.8033 39.008 13.8645Z" fill="#46A358"/>
<path d="M24.3263 17.7833C18.2996 22.1302 20.2536 31.9577 21.4713 38.0662C21.6235 38.8369 22.8165 38.5107 22.6602 37.74C22.0226 34.543 21.4302 31.3093 21.4919 28.039C21.5536 24.8583 22.1583 20.8498 24.9475 18.8395C25.5851 18.3787 24.9721 17.3184 24.3263 17.7833Z" fill="#46A358"/>
<path d="M31.0931 13.8278C28.8511 17.2491 27.4031 21.074 26.8765 25.1273C26.6009 27.2519 26.5803 29.405 26.8354 31.5336C27.111 33.8579 27.8638 36.0925 28.1435 38.4169C28.234 39.1876 29.4723 39.1998 29.3777 38.4169C28.8922 34.3595 27.6417 30.6242 27.9708 26.473C28.3122 22.1628 29.7932 18.0605 32.1627 14.4435C32.5905 13.7829 31.5251 13.1713 31.0931 13.8278Z" fill="#46A358"/>
<path d="M34.1088 17.608C35.9477 20.6174 36.3344 24.0223 36.6552 27.4599C36.9885 31.0361 37.26 34.6164 37.4903 38.2008C37.5397 38.9838 38.7738 38.9878 38.7245 38.2008C38.4653 34.1434 38.1732 30.086 37.7536 26.0409C37.4245 22.8643 36.8692 19.7529 35.1743 16.9882C34.7629 16.3194 33.6933 16.9311 34.1088 17.608Z" fill="#46A358"/>
<path d="M39.724 18.1789C44.319 23.9082 44.4713 31.2237 44.3067 38.2049C44.2903 38.9919 45.5244 38.9919 45.5408 38.2049C45.7136 30.8404 45.4174 23.3291 40.5961 17.3144C40.1024 16.6986 39.2344 17.5713 39.724 18.1789Z" fill="#46A358"/>
<path d="M31.9532 19.6713C31.8833 19.9445 31.8174 20.2137 31.7475 20.4869C31.6529 20.8702 32.2453 21.0333 32.344 20.65C32.4139 20.3768 32.4798 20.1077 32.5497 19.8344C32.6443 19.4552 32.0519 19.2921 31.9532 19.6713Z" fill="#46A358"/>
<path d="M33.2861 21.7958C33.2861 22.1016 33.2861 22.4075 33.2861 22.7133C33.2861 23.1089 33.9032 23.1089 33.9032 22.7133C33.9032 22.4075 33.9032 22.1016 33.9032 21.7958C33.9032 21.4003 33.2861 21.4003 33.2861 21.7958Z" fill="#46A358"/>
<path d="M30.3074 23.7328C30.2745 24.1732 30.2375 24.6177 30.2046 25.0581C30.1758 25.4496 30.7929 25.4496 30.8217 25.0581C30.8546 24.6177 30.8916 24.1732 30.9245 23.7328C30.9533 23.3413 30.3362 23.3413 30.3074 23.7328Z" fill="#46A358"/>
<path d="M34.3145 25.8736C34.3145 26.2813 34.3145 26.6891 34.3145 27.0969C34.3145 27.4924 34.9315 27.4924 34.9315 27.0969C34.9315 26.6891 34.9315 26.2813 34.9315 25.8736C34.9315 25.478 34.3145 25.478 34.3145 25.8736Z" fill="#46A358"/>
<path d="M31.9487 28.1164C31.9487 28.5568 31.9487 29.0012 31.9487 29.4416C31.9487 29.8372 32.5658 29.8372 32.5658 29.4416C32.5658 29.0012 32.5658 28.5568 32.5658 28.1164C32.5658 27.7208 31.9487 27.7208 31.9487 28.1164Z" fill="#46A358"/>
<path d="M30.6118 32.602C30.6118 33.2136 30.6118 33.8253 30.6118 34.437C30.6118 34.8325 31.2289 34.8325 31.2289 34.437C31.2289 33.8253 31.2289 33.2136 31.2289 32.602C31.2289 32.2064 30.6118 32.2064 30.6118 32.602Z" fill="#46A358"/>
<path d="M28.7816 28.6017C28.8515 29.0094 28.9256 29.4172 28.9955 29.825C29.0613 30.2124 29.6578 30.0493 29.592 29.6619C29.522 29.2541 29.448 28.8463 29.3781 28.4385C29.3081 28.0552 28.7116 28.2183 28.7816 28.6017Z" fill="#46A358"/>
<path d="M33.4996 34.641C33.5325 35.0487 33.5696 35.4565 33.6025 35.8643C33.6354 36.2558 34.2525 36.2558 34.2196 35.8643C34.1866 35.4565 34.1496 35.0487 34.1167 34.641C34.0838 34.2495 33.4626 34.2454 33.4996 34.641Z" fill="#46A358"/>
<path d="M35.347 30.0533C35.3799 30.4611 35.4169 30.8689 35.4498 31.2766C35.4827 31.664 36.0998 31.6681 36.0669 31.2766C36.034 30.8689 35.9969 30.4611 35.964 30.0533C35.9311 29.6618 35.3141 29.6578 35.347 30.0533Z" fill="#46A358"/>
<path d="M42.4306 16.4011C42.9078 16.8129 43.385 17.2248 43.8622 17.6326C44.1625 17.8895 44.5986 17.4572 44.2982 17.2003C43.821 16.7885 43.3439 16.3766 42.8667 15.9688C42.5705 15.7119 42.1303 16.1401 42.4306 16.4011Z" fill="#46A358"/>
<path d="M42.6901 19.8059C42.9575 20.283 43.229 20.7642 43.4964 21.2413C43.6898 21.5838 44.2246 21.278 44.0312 20.9314C43.7638 20.4543 43.4923 19.9731 43.2249 19.496C43.0275 19.1534 42.4968 19.4634 42.6901 19.8059Z" fill="#46A358"/>
<path d="M45.1622 20.0056C45.4666 20.4174 45.771 20.8293 46.0754 21.2371C46.3058 21.5511 46.8447 21.2452 46.6102 20.9272C46.3058 20.5153 46.0014 20.1034 45.697 19.6957C45.4625 19.3858 44.9277 19.6875 45.1622 20.0056Z" fill="#46A358"/>
<path d="M46.6846 25.3395C46.7874 26.0531 46.8944 26.7667 46.9972 27.4803C47.0548 27.8677 47.6472 27.7046 47.5937 27.3172C47.4909 26.6036 47.3839 25.89 47.2811 25.1764C47.2194 24.789 46.627 24.9562 46.6846 25.3395Z" fill="#46A358"/>
<path d="M44.6114 23.5085C44.7142 23.8469 44.8171 24.1895 44.9199 24.5279C45.0351 24.9031 45.6275 24.744 45.5164 24.3648C45.4136 24.0263 45.3107 23.6838 45.2079 23.3453C45.0927 22.9702 44.4962 23.1292 44.6114 23.5085Z" fill="#46A358"/>
<path d="M47.8816 31.1748C47.9268 31.66 47.9186 32.1453 47.8404 32.6265C47.7787 33.0098 48.3711 33.177 48.4369 32.7896C48.5233 32.2513 48.5521 31.7171 48.5028 31.1748C48.4616 30.7874 47.8445 30.7833 47.8816 31.1748Z" fill="#46A358"/>
<path d="M46.4502 33.1116C46.4502 33.4868 46.4502 33.8578 46.4502 34.233C46.4502 34.6285 47.0673 34.6285 47.0673 34.233C47.0673 33.8578 47.0673 33.4868 47.0673 33.1116C47.0673 32.7161 46.4502 32.7161 46.4502 33.1116Z" fill="#46A358"/>
<path d="M47.0879 22.8929C47.2565 23.3007 47.4293 23.7085 47.598 24.1163C47.6638 24.2712 47.8037 24.3773 47.9764 24.3283C48.1204 24.2916 48.2562 24.104 48.1904 23.9532C48.0217 23.5454 47.8489 23.1376 47.6803 22.7298C47.6144 22.5749 47.4746 22.4688 47.3018 22.5178C47.1578 22.5545 47.0262 22.7421 47.0879 22.8929Z" fill="#46A358"/>
<path d="M45.9355 29.9513C45.9355 30.1878 45.9355 30.4284 45.9355 30.6649C45.9355 31.0605 46.5526 31.0605 46.5526 30.6649C46.5526 30.4284 46.5526 30.1878 46.5526 29.9513C46.5526 29.5558 45.9355 29.5558 45.9355 29.9513Z" fill="#46A358"/>
<path d="M47.1699 36.7817C47.1534 37.0712 47.0835 37.3485 46.9765 37.6177C46.9148 37.7726 47.0465 37.952 47.1905 37.9928C47.3673 38.0417 47.5072 37.9316 47.5689 37.7808C47.7006 37.4586 47.7664 37.1283 47.787 36.7817C47.8116 36.3862 47.1946 36.3902 47.1699 36.7817Z" fill="#46A358"/>
<path d="M21.2902 18.8843C21.0804 19.1861 20.8706 19.4879 20.6567 19.7896C20.4305 20.1158 20.9653 20.4217 21.1915 20.0995C21.4013 19.7978 21.6111 19.496 21.825 19.1943C22.0472 18.868 21.5124 18.5622 21.2902 18.8843Z" fill="#46A358"/>
<path d="M19.5295 23.3453C19.4513 23.7164 19.3772 24.0874 19.2991 24.4626C19.2209 24.8459 19.8133 25.0131 19.8956 24.6257C19.9737 24.2546 20.0478 23.8836 20.1259 23.5084C20.2041 23.1251 19.6076 22.962 19.5295 23.3453Z" fill="#46A358"/>
<path d="M19.332 21.1229C19.007 21.5511 18.7643 22.0241 18.5997 22.5338C18.4763 22.909 19.0728 23.068 19.1962 22.6969C19.3484 22.2361 19.5747 21.8202 19.8668 21.4328C20.1054 21.1148 19.5665 20.813 19.332 21.1229Z" fill="#46A358"/>
<path d="M18.0773 25.1803C18.0033 25.69 17.9251 26.1957 17.8511 26.7054C17.7935 27.0887 18.39 27.2559 18.4476 26.8685C18.5216 26.3588 18.5998 25.8531 18.6738 25.3434C18.7314 24.956 18.1349 24.7888 18.0773 25.1803Z" fill="#46A358"/>
<path d="M18.6944 28.1164C18.6409 28.6261 18.6739 29.1277 18.7726 29.6293C18.8466 30.0167 19.4431 29.8536 19.3691 29.4662C19.2827 29.0176 19.2662 28.569 19.3156 28.1164C19.3485 27.7249 18.7314 27.729 18.6944 28.1164Z" fill="#46A358"/>
<path d="M19.2003 31.9904C19.2332 32.2962 19.2702 32.6021 19.3032 32.9079C19.3196 33.071 19.4307 33.2137 19.6117 33.2137C19.7639 33.2137 19.9408 33.0751 19.9202 32.9079C19.8873 32.6021 19.8503 32.2962 19.8174 31.9904C19.8009 31.8273 19.6898 31.6846 19.5088 31.6846C19.3566 31.6846 19.1839 31.8232 19.2003 31.9904Z" fill="#46A358"/>
<path d="M18.2008 34.2902C18.4394 34.6776 18.6122 35.0854 18.7192 35.5298C18.8138 35.9132 19.4062 35.7501 19.3156 35.3667C19.1964 34.8774 18.9989 34.4125 18.7356 33.9803C18.5258 33.6459 17.9951 33.9558 18.2008 34.2902Z" fill="#46A358"/>
<path d="M19.5171 36.8634C19.587 37.0346 19.6528 37.2018 19.7228 37.3731C19.7845 37.524 19.9284 37.6341 20.1012 37.5851C20.2493 37.5444 20.381 37.3649 20.3151 37.21C20.2452 37.0387 20.1794 36.8715 20.1095 36.7002C20.0477 36.5494 19.9038 36.4393 19.731 36.4882C19.587 36.5249 19.4554 36.7084 19.5171 36.8634Z" fill="#46A358"/>
</g>
<defs>
<clipPath id="clip0_1_411">
<rect width="68" height="49" fill="white" transform="translate(0 38)"/>
</clipPath>
<clipPath id="clip1_1_411">
<rect width="35" height="39" fill="white" transform="translate(16)"/>
</clipPath>
</defs>
</svg>
