<svg width="61" height="93" viewBox="0 0 61 93" fill="none" xmlns="http://www.w3.org/2000/svg">
<g clip-path="url(#clip0_5225_41)">
<path d="M19.2989 44.7375C19.858 40.1055 16.6249 36.6471 13.1799 33.9799C11.1733 32.424 9.21185 31.126 7.90419 28.8989C7.23683 27.7565 6.59653 26.4673 6.22227 25.2004C5.49178 22.7333 6.75435 18.857 9.8792 21.702C11.6784 23.3423 12.0932 25.4583 13.4685 27.2808C14.2441 28.3121 15.4345 28.8634 16.6745 28.2055C20.4036 26.2317 17.5177 19.386 16.6835 16.6654C15.6735 13.3715 15.1414 10.202 16.8414 7.03247C17.4005 5.99227 18.0273 4.92095 18.7442 3.98299C19.2087 3.37843 19.7994 2.72497 20.4622 2.30711C21.833 1.43584 22.6582 1.43584 24.1733 1.89815C25.7875 2.39158 25.8011 2.47604 26.1302 4.00522C26.2835 4.71202 26.3467 5.48995 26.3827 6.21898C26.4594 7.7615 26.3331 9.31736 26.013 10.8332C25.4133 13.7093 23.6863 16.252 23.3075 19.1726C23.0279 21.3197 23.2218 28.1432 26.8111 27.5031C31.0182 26.7518 30.7161 20.0928 34.9096 19.2037C38.3997 18.4613 40.1041 22.2443 38.6251 24.8404C37.8225 26.254 36.4878 27.3475 35.2027 28.3121C32.912 30.0325 30.1118 30.9304 27.8618 32.6685C23.79 35.8247 25.1427 40.7857 26.8156 44.8531C27.1403 45.6399 28.4479 45.2932 28.1188 44.4975C26.9915 41.7547 25.5756 38.3985 27.0997 35.518C28.5111 32.8508 32.2356 31.9173 34.639 30.3436C37.8856 28.2188 42.5436 24.218 39.793 20.0083C37.4933 16.4832 33.0383 17.6612 30.937 20.6129C30.3012 21.5064 29.8097 22.4888 29.2461 23.4268C28.989 23.8535 28.732 24.2847 28.4299 24.6848C28.2135 24.9426 27.997 25.196 27.7806 25.4538C26.0716 25.8272 25.1878 25.3782 25.1292 24.098C23.4157 20.5062 25.4899 16.8255 26.6533 13.5137C27.5191 11.051 27.8888 8.4283 27.7039 5.8278C27.5777 4.02745 27.3883 1.59142 25.6703 0.515657C24.1597 -0.431192 21.8375 0.111135 20.354 0.849055C18.1445 1.95149 16.7918 4.28972 15.6735 6.37012C12.8011 11.7134 15.7005 16.421 16.7692 21.8042C16.909 22.5199 17.2652 24.0891 17.0262 24.8848C16.2957 25.5427 15.5653 26.1962 14.8303 26.8541C14.4109 26.3251 14.0953 25.7472 13.8743 25.1115C13.4505 24.1825 13.0041 23.3156 12.3863 22.4888C11.4123 21.1819 9.57258 19.0348 7.69226 19.1415C5.86604 19.2482 4.79286 21.1508 4.59897 22.7377C4.31038 25.0848 5.58648 27.5876 6.74082 29.5791C9.94233 35.0957 18.866 37.1272 17.9461 44.7464C17.8469 45.5866 19.1996 45.5821 19.2989 44.7375Z" fill="#46A358"/>
<path d="M30.9866 22.5733C31.9606 17.7057 30.1209 13.2559 29.7376 8.45056C29.5076 5.57889 30.7477 0.986893 34.6887 2.29381C37.6241 3.26733 38.7379 6.71689 38.5395 9.47742C38.3952 11.4956 37.4122 17.4167 41.3532 16.8655C44.7351 16.3943 46.4801 10.8377 48.1215 8.48167C49.5283 6.46351 52.6351 3.51627 55.3677 4.33865C59.6965 5.64112 56.9234 10.7621 54.9303 12.7758C51.571 16.1676 47.9907 19.1682 45.0282 22.9467C43.3102 25.1382 41.8222 28.7389 45.6324 29.7213C47.0979 30.0992 48.5093 29.5969 49.8304 29.0012C50.8946 28.5211 51.9092 27.9477 53.041 27.632C55.1062 27.0541 57.5005 27.5076 56.1342 30.0369C52.9373 35.9625 45.6189 31.5928 40.8978 34.0777C36.8936 36.1892 35.9602 40.8568 36.339 44.9509C36.4157 45.8 37.7729 45.8089 37.6918 44.9509C37.4257 42.0971 37.6557 39.012 39.6578 36.7494C42.246 33.8243 45.7 34.8912 49.127 34.8245C52.6261 34.7579 57.1308 33.0864 57.8568 29.2323C58.6504 25.0093 53.7714 25.8272 51.2689 26.8452C50.1641 27.2942 49.1315 27.9921 47.9772 28.3211C47.0618 28.5833 45.6144 28.7256 44.8929 27.8765C44.194 27.0497 44.7576 25.6583 45.1905 24.956C46.7732 22.3777 49.1992 20.0261 51.3545 17.9057C54.3261 14.9807 59.3944 11.8779 58.957 7.10807C58.6233 3.45848 55.2054 2.12045 52.0535 3.4896C50.1596 4.31198 48.5949 5.6189 47.3594 7.25032C45.7451 9.37962 44.8839 12.3046 42.9585 14.1806C42.2641 14.8562 41.5832 16.2921 40.032 14.8829C39.3421 14.2561 39.5495 12.5847 39.6217 11.7267C39.7164 10.6021 39.9599 9.50409 39.9238 8.37054C39.8652 6.45462 39.2204 4.51202 37.9623 3.02729C35.3019 -0.102206 30.7341 0.035598 28.9665 3.9608C27.9114 6.30792 28.3758 8.99288 28.8177 11.4289C29.467 15.0252 30.4185 18.5547 29.6835 22.2177C29.5166 23.0578 30.8198 23.4179 30.9866 22.5733Z" fill="#46A358"/>
<path d="M30.6846 31.006C30.0488 35.5891 29.0071 40.0788 27.5552 44.4797C27.2846 45.2976 28.5923 45.6488 28.8583 44.8353C30.3103 40.4345 31.3519 35.9447 31.9877 31.3616C32.1049 30.517 30.8018 30.1569 30.6846 31.006Z" fill="#46A358"/>
<path d="M14.5058 43.973C14.3299 40.4435 11.8454 38.0608 8.98655 36.2471C7.13328 35.0691 5.10415 34.0867 3.51242 32.553C2.82703 31.8951 1.55093 30.6193 1.48329 29.5969C1.25333 26.1874 5.47842 28.8412 6.41632 29.628C7.07466 30.1837 8.03511 29.2413 7.37227 28.6856C5.89777 27.4454 3.25089 25.8317 1.22627 26.7653C-0.406046 27.5165 -0.135497 29.3791 0.491278 30.7216C3.12914 36.4249 12.8058 37.0784 13.153 43.973C13.1936 44.8265 14.5509 44.831 14.5058 43.973Z" fill="#46A358"/>
<path d="M44.8388 45.2931C46.5253 42.786 48.7483 40.7367 51.4718 39.3587C53.9519 38.1051 57.0271 37.8873 59.2231 36.1136C61.7437 34.0776 61.8745 29.0856 57.7035 29.2145C56.8332 29.2412 56.8332 30.5747 57.7035 30.5481C59.3493 30.7703 60.0167 31.6683 59.7146 33.2375C59.3764 34.1399 58.8037 34.8511 57.9966 35.3668C57.0091 36.0558 55.8096 36.3714 54.6733 36.727C53.2259 37.1805 51.8145 37.6561 50.4753 38.3674C47.6886 39.8521 45.4115 42.0303 43.6664 44.6219C43.184 45.3376 44.3564 46.0044 44.8388 45.2931Z" fill="#46A358"/>
<path d="M48.5139 33.562C42.7828 34.6289 40.668 40.2522 39.3107 45.1731C39.0807 46.0044 40.3884 46.3556 40.6139 45.5287C41.8494 41.0523 43.6305 35.8246 48.8746 34.8511C49.7269 34.6866 49.3661 33.402 48.5139 33.562Z" fill="#46A358"/>
<path d="M18.2933 13.2648C17.6214 10.6021 18.4601 7.68598 20.6336 5.89896C21.071 5.52111 21.567 5.23217 22.1126 5.03213C23.6141 5.34775 24.313 6.13901 24.2093 7.40592C24.2364 8.14384 24.0921 8.87287 23.9162 9.58412C23.56 11.02 22.9332 12.3847 22.4688 13.7894C21.2739 17.4079 19.5559 23.3246 22.7844 26.4051C23.0956 26.703 23.5781 26.2318 23.2624 25.9339C20.4307 23.2356 21.8826 18.048 22.8521 14.8162C23.6908 12.0157 25.9679 8.29498 24.4303 5.35219C23.2308 3.05841 20.4803 4.921 19.3124 6.26348C17.5854 8.25053 17.0037 10.9222 17.6395 13.4426C17.7477 13.8605 18.397 13.6827 18.2933 13.2648Z" fill="#46A358"/>
<path d="M32.5877 24.0624C32.9755 23.2133 33.7601 22.0131 34.8107 21.8709C36.4114 21.653 37.2366 23.6356 36.3799 24.947C35.5727 26.1828 34.0351 27.0452 32.7094 27.5742C30.5044 28.4499 29.0254 29.659 27.4247 31.3883C27.1316 31.7039 27.6095 32.1795 27.9026 31.8595C28.8721 30.8059 29.8641 29.7124 31.1267 28.9833C32.1322 28.401 33.3001 28.1743 34.3102 27.6053C35.5412 26.9074 37.5342 25.4004 37.6785 23.8801C37.7958 22.6532 36.4836 21.2307 35.2571 21.1552C33.7781 21.0618 32.5426 22.5554 32.006 23.729C31.8256 24.1113 32.4118 24.4536 32.5877 24.0624Z" fill="#46A358"/>
<path d="M7.30024 24.8359C7.44904 23.6668 7.89545 23.2356 8.63495 23.5512C8.89648 23.5557 9.11292 23.649 9.29329 23.8313C9.64951 24.0625 9.88399 24.4047 10.0959 24.7648C10.4747 25.4094 10.6505 26.1606 10.9301 26.8452C11.2863 27.7254 11.7553 28.4411 12.5624 28.9656C12.9277 29.2057 13.2659 28.6278 12.9051 28.3877C10.9211 27.0897 11.4757 23.7202 8.99568 22.9022C7.50766 22.4132 6.01062 23.6846 6.71856 25.1693C6.90343 25.5605 7.48511 25.2227 7.30024 24.8359Z" fill="#46A358"/>
<path d="M31.5323 7.58379C31.1806 5.66342 33.2322 4.13423 34.8014 5.5345C35.6672 6.30799 36.0009 7.73048 36.0054 8.84181C36.0144 10.3488 35.3155 11.6957 35.6131 13.2071C35.6942 13.6294 36.3481 13.4516 36.2669 13.0293C35.8926 11.1311 36.9658 9.31301 36.4833 7.34374C36.1947 6.16574 35.6086 4.85437 34.373 4.40984C32.1455 3.61413 30.5087 5.73899 30.8784 7.75716C30.9596 8.17946 31.6089 8.00165 31.5323 7.58379Z" fill="#46A358"/>
<path d="M31.194 11.98C32.2943 14.2605 32.8354 16.2609 32.7542 18.7902C32.7407 19.2214 33.417 19.217 33.4306 18.7902C33.5162 16.1319 32.93 14.0293 31.7802 11.6466C31.5908 11.2599 31.0091 11.5977 31.194 11.98Z" fill="#46A358"/>
<path d="M48.7349 10.073C49.3887 8.60165 50.6242 7.67258 52.0536 6.97467C52.464 6.76129 52.8878 6.58793 53.3297 6.45012C55.2371 7.09025 55.7196 7.97486 54.7772 9.11286C54.3263 9.81077 53.6724 10.4376 53.1088 11.051C50.9624 13.3848 48.6447 15.5452 46.1962 17.5634C45.8625 17.839 46.3405 18.3102 46.6742 18.0346C48.8882 16.212 50.994 14.2739 52.96 12.1935C54.1414 10.9443 56.4095 9.09063 55.9135 7.11692C54.926 3.20505 48.9784 7.86817 48.1487 9.73965C47.9773 10.1264 48.5635 10.4642 48.7349 10.073Z" fill="#46A358"/>
<path d="M44.9157 19.9861C42.7558 21.5508 41.4436 23.8313 41.1956 26.4585C41.155 26.8852 41.8314 26.8808 41.872 26.4585C42.0974 24.0847 43.3059 21.9731 45.2584 20.5595C45.6056 20.3106 45.2674 19.7283 44.9157 19.9861Z" fill="#46A358"/>
<path d="M49.1948 31.1083C49.6367 30.846 50.0786 30.5704 50.543 30.3437C50.8948 30.1525 51.2645 30.0058 51.6523 29.9036C52.3783 29.6058 52.6218 30.1614 52.3783 31.5706C51.9003 32.4997 49.312 32.5352 48.5094 32.4863C46.5028 32.3707 44.6135 31.8284 42.634 32.4285C42.2191 32.553 42.395 33.1976 42.8143 33.0731C45.1907 32.3485 47.5039 33.4021 49.9027 33.1398C51.2059 32.9931 53.0501 32.4019 53.6995 31.1572C54.0602 30.4637 53.9745 29.548 53.1854 29.1701C51.8913 28.5522 49.8712 29.9214 48.8521 30.5304C48.4824 30.7571 48.8205 31.335 49.1948 31.1083Z" fill="#46A358"/>
<path d="M39.1393 33.5886C35.6221 36.4025 34.3415 40.67 33.9853 44.973C33.9492 45.3998 34.6256 45.3998 34.6617 44.973C35.0044 40.8345 36.2354 36.7626 39.6172 34.0598C39.9554 33.7887 39.4729 33.3219 39.1393 33.5886Z" fill="#46A358"/>
<path d="M24.0023 34.7223C22.9562 36.5093 22.9877 38.4563 23.2177 40.4567C23.4116 42.1371 23.6325 43.7863 24.8094 45.0932C25.098 45.4132 25.576 44.942 25.2874 44.622C24.1331 43.3417 23.9888 41.5636 23.8354 39.9277C23.6731 38.2252 23.6957 36.576 24.5885 35.0557C24.8049 34.6867 24.2232 34.3533 24.0023 34.7223Z" fill="#46A358"/>
<path d="M5.34297 30.3303C3.38599 30.357 4.16157 32.3885 5.20769 33.1175C6.51535 34.0288 8.00338 34.6378 9.3922 35.4069C11.029 36.3137 11.6874 37.8429 12.9454 39.1187C13.2475 39.4254 13.7255 38.9542 13.4234 38.6475C12.1744 37.3806 11.5701 35.8647 9.96035 34.9579C9.14871 34.5 8.29647 34.1133 7.48031 33.6732C7.05645 33.4465 6.63259 33.2198 6.22677 32.9664C6.06444 32.8686 5.8976 32.7664 5.73527 32.6686C4.92813 32.3663 4.80187 31.8106 5.34748 31.0016C5.77585 30.9927 5.77585 30.3259 5.34297 30.3303Z" fill="#46A358"/>
<path d="M56.2381 33.402C56.2607 34.2911 55.8458 34.7756 54.9846 34.8601C54.5697 35.0245 54.1594 35.1846 53.7445 35.349C53.1268 35.5935 52.5045 35.838 51.8868 36.0825C50.4438 36.6515 48.9964 37.225 47.5535 37.794C47.1521 37.9495 47.328 38.5986 47.7338 38.4385C49.3842 37.7851 51.0345 37.1361 52.6849 36.4826C53.9069 35.9981 55.4671 35.6513 56.5538 34.8956C57.4962 34.2377 57.5232 32.873 56.2336 32.7352C55.8052 32.6863 55.8097 33.3576 56.2381 33.402Z" fill="#46A358"/>
<path d="M46.0022 38.7186C44.1895 40.4078 42.7601 42.3904 41.75 44.6397C41.5742 45.0265 42.1558 45.3688 42.3362 44.9776C43.3237 42.7816 44.708 40.8434 46.4846 39.1942C46.7958 38.8964 46.3178 38.4252 46.0022 38.7186Z" fill="#46A358"/>
<path d="M14.5507 41.6347C15.0693 42.3904 15.4029 43.2038 15.5608 44.1018C15.6329 44.5241 16.2867 44.3463 16.2146 43.924C16.0478 42.9771 15.6825 42.0925 15.1369 41.2968C14.8934 40.9456 14.3072 41.279 14.5507 41.6347Z" fill="#46A358"/>
</g>
<g clip-path="url(#clip1_5225_41)">
<path d="M9.79349 48.3003C23.2809 49.8946 36.8933 50.1451 50.4432 49.0478C51.3619 48.9743 51.3715 47.6782 50.4432 47.7516C36.8933 48.849 23.2809 48.5984 9.79349 47.0042C8.87958 46.8962 8.88439 48.1966 9.79349 48.3003Z" fill="#727272"/>
<path d="M12.9056 92.071C18.7354 92.7364 24.6036 93.0604 30.4815 92.987C35.6523 92.9221 41.7563 93.1252 46.6048 91.2976C47.4465 90.9779 47.0762 89.725 46.22 90.049C41.2464 91.9241 34.8731 91.6692 29.5532 91.6995C23.9831 91.734 18.4275 91.4057 12.9008 90.7749C11.9869 90.6712 11.9917 91.9673 12.9056 92.071Z" fill="#727272"/>
<path d="M9.23056 47.3024C2.50131 52.9104 -0.634837 61.2705 0.10591 69.4232C0.485903 73.6356 1.81348 77.7314 3.80964 81.5507C5.62784 85.033 8.30703 90.0232 12.3282 91.8334C13.1556 92.205 13.8867 91.0903 13.0545 90.7144C9.31233 89.0295 6.76782 84.1776 5.05545 80.8983C3.06409 77.0747 1.76056 72.9228 1.4912 68.7017C1.0102 61.0933 3.98281 53.4418 10.2551 48.2183C10.9381 47.6524 9.91359 46.7364 9.23056 47.3024Z" fill="#727272"/>
<path d="M49.933 48.8707C57.0326 52.8671 57.7012 61.4864 57.528 68.2739C57.3356 75.8433 56.2919 87.837 46.2196 90.049C45.3201 90.2478 45.7001 91.4964 46.6044 91.2976C57.1192 88.9905 58.6295 77.0876 58.947 69.0775C59.2404 61.5815 58.4997 52.1629 50.6593 47.7517C49.8704 47.311 49.1489 48.43 49.933 48.8707Z" fill="#727272"/>
<path d="M14.565 48.309C9.26912 53.4287 6.93144 61.9789 7.82611 68.8355C8.34559 72.8233 9.75012 76.7809 10.7939 80.6736C11.8425 84.575 12.9248 88.4461 15.3009 91.8895C15.7915 92.5981 17.0373 91.9457 16.5467 91.2371C14.3149 88.0054 13.2759 84.3935 12.2898 80.7341C11.3374 77.2086 10.2263 73.6788 9.49038 70.1144C8.09547 63.3269 10.2792 54.3576 15.5847 49.2249C16.2148 48.6114 15.1951 47.6955 14.565 48.309Z" fill="#727272"/>
<path d="M21.7128 48.8492C17.7685 55.0879 15.6954 62.1735 15.8012 69.3541C15.8541 72.8018 16.4025 76.2539 17.4511 79.572C18.7546 83.6894 20.7363 87.5951 21.6021 91.8248C21.7705 92.6457 23.1606 92.2958 22.9922 91.4792C22.2371 87.7766 20.6353 84.3288 19.3607 80.7601C18.1245 77.2951 17.3837 73.7221 17.2587 70.0799C17.0085 62.8777 18.9999 55.7619 22.9586 49.5015C23.4203 48.7757 22.1745 48.1233 21.7128 48.8492Z" fill="#727272"/>
<path d="M25.9646 50.0892C27.3354 57.2871 25.6711 64.4979 25.8106 71.7261C25.8732 75.0269 26.6957 78.0987 27.1767 81.3477C27.6769 84.722 26.8207 88.1914 26.3542 91.5397C26.2387 92.3649 27.6817 92.3563 27.7972 91.5397C28.2686 88.1611 29.1199 84.6659 28.6197 81.2613C28.1098 77.779 27.2488 74.4782 27.244 70.9354C27.2344 63.8455 28.6967 56.8075 27.3547 49.7479C27.1959 48.927 25.8058 49.2726 25.9646 50.0892Z" fill="#727272"/>
<path d="M31.3761 49.4885C33.911 55.9908 34.2188 62.8517 34.4738 69.6737C34.7528 77.0833 34.3391 84.3762 32.7999 91.6692C32.6267 92.4858 34.0168 92.8357 34.19 92.0148C35.7533 84.6095 36.2006 77.1956 35.9168 69.6737C35.6571 62.7393 35.3396 55.7488 32.7662 49.1428C32.4632 48.3652 31.0683 48.7021 31.3761 49.4885Z" fill="#727272"/>
<path d="M37.4464 49.5189C37.9803 50.9835 39.1347 51.9599 40.0198 53.2474C41.0299 54.7164 41.583 56.3798 41.8813 58.0734C42.5306 61.7717 42.2228 65.6428 42.2132 69.3714C42.2035 73.4283 42.5499 77.7186 41.381 81.6804C40.3517 85.1584 37.9899 88.1568 37.2011 91.7082C37.0183 92.5248 38.4084 92.8704 38.5912 92.0539C39.4378 88.2519 42.0544 85.0331 42.978 81.2484C43.9255 77.3772 43.6466 73.3074 43.6562 69.3714C43.6658 65.7336 43.9111 62.0137 43.3772 58.3974C43.1415 56.7989 42.7375 55.2176 41.9678 53.7572C41.1117 52.1284 39.4618 50.8885 38.8413 49.1776C38.5479 48.3869 37.153 48.7239 37.4464 49.5189Z" fill="#727272"/>
<path d="M44.464 49.3156C47.3307 51.7351 48.7112 55.5976 49.7454 58.933C50.8228 62.4066 50.4621 66.1136 50.2216 69.6693C49.7358 76.8845 48.3793 84.0911 44.5265 90.5199C44.084 91.2544 45.3298 91.9111 45.7723 91.1723C49.8801 84.3157 51.2509 76.608 51.7079 68.9176C51.9388 65.0464 52.1263 61.266 50.7747 57.5375C49.6011 54.3014 48.3072 50.7846 45.4837 48.3954C44.8103 47.8294 43.7857 48.7453 44.464 49.3156Z" fill="#727272"/>
<path d="M14.4494 52.5561C14.3003 52.8974 14.1367 53.2344 13.9587 53.5671C13.7327 53.9862 13.9972 54.5608 14.584 54.5435C15.0025 54.5306 15.3344 54.3621 15.6326 54.1072C15.7288 54.0251 15.825 53.9387 15.9164 53.8566C16.0367 53.7486 15.8779 53.9214 15.9693 53.822C15.9501 53.8479 15.8491 53.8393 15.9405 53.8479C15.7096 53.5757 15.4787 53.2992 15.243 53.027C15.1805 53.3165 15.1131 53.606 15.0506 53.8998C14.9737 54.2411 15.1612 54.5997 15.5557 54.6991C15.9116 54.7855 16.3686 54.591 16.4455 54.2454C16.5081 53.9559 16.5754 53.6665 16.6379 53.3727C16.7341 52.932 16.4311 52.595 15.9405 52.5518C15.5412 52.5172 15.1805 52.7073 14.8967 52.9406C14.7957 53.0227 14.7091 53.1091 14.6081 53.1912C14.5744 53.2171 14.5456 53.2431 14.5119 53.269C14.5263 53.256 14.5408 53.2474 14.5552 53.2344C14.483 53.269 14.483 53.2733 14.5648 53.2431C14.483 53.2603 14.4878 53.2647 14.5792 53.2431C14.7861 53.5671 14.9929 53.8911 15.2045 54.2195C15.4354 53.7874 15.6471 53.3467 15.8395 52.9017C15.979 52.5734 15.6855 52.1889 15.3344 52.1025C14.9304 52.0031 14.5937 52.2277 14.4494 52.5561Z" fill="#727272"/>
<path d="M10.8758 60.3114C10.8085 60.6743 10.7411 61.0372 10.6738 61.3958C10.6209 61.6853 10.7074 61.9704 11.0057 62.126C11.2702 62.2642 11.6695 62.2383 11.8811 62.0266C12.0206 61.884 12.1601 61.7415 12.2996 61.5989C12.391 61.5038 12.5208 61.3267 12.6315 61.2748C12.5112 61.3051 12.391 61.3353 12.2659 61.3613C12.2899 61.3569 12.3188 61.3569 12.3429 61.3526C12.2226 61.3224 12.1024 61.2921 11.9773 61.2662C11.9965 61.2792 12.0158 61.2921 12.035 61.3051C11.9148 61.1193 11.7945 60.9335 11.6791 60.7434C11.7176 61.115 11.6021 61.5298 11.554 61.9056C11.4867 62.4457 12.2034 62.6444 12.6411 62.4673C13.2087 62.2297 13.5887 61.7933 13.7907 61.2705C13.3866 61.3656 12.9874 61.4606 12.5834 61.5557C12.5689 61.4736 12.5545 61.3915 12.5401 61.3094C12.3044 62.1173 13.6993 62.463 13.9302 61.655C14.036 61.2878 13.9398 60.886 13.6031 60.6397C13.1702 60.3243 12.5882 60.4367 12.3958 60.9249C12.3092 61.1409 12.1312 61.2532 11.91 61.3483C12.2707 61.5341 12.6315 61.7199 12.997 61.91C13.0692 61.331 13.4155 60.3027 12.5304 60.0824C11.7849 59.8966 11.2606 60.6916 10.8566 61.1107C11.2606 61.3224 11.6598 61.5298 12.0639 61.7415C12.1312 61.3785 12.1986 61.0156 12.2659 60.657C12.3284 60.3114 12.1649 59.9571 11.7608 59.8577C11.4193 59.7756 10.9383 59.9657 10.8758 60.3114Z" fill="#727272"/>
<path d="M10.2549 68.1184C10.303 68.6282 10.356 69.1381 10.4041 69.6436C10.4762 70.3651 11.5585 70.5336 11.823 69.8164C11.9673 69.4189 12.1693 69.0603 12.4243 68.706C11.9866 68.6542 11.544 68.6023 11.1063 68.5505C11.2747 68.9264 11.3901 69.3109 11.4526 69.717C11.5248 70.175 12.1453 70.2527 12.5109 70.1058C12.6936 70.0324 12.8427 69.8898 12.9389 69.7343C12.9822 69.6652 13.0159 69.5831 13.0448 69.5096C13.0592 69.4707 13.0688 69.4319 13.0832 69.393C13.1073 69.3282 13.0977 69.3325 13.064 69.4059C12.9582 69.4621 12.8524 69.5183 12.7465 69.5744C12.7706 69.5658 12.7995 69.5615 12.8235 69.5528C12.6936 69.5528 12.5686 69.5528 12.4387 69.5528C12.4291 69.5485 12.4195 69.5442 12.4147 69.5355C12.3281 69.4578 12.2415 69.38 12.1549 69.3022C12.1693 69.3195 12.179 69.3368 12.1934 69.3541C12.1693 69.1856 12.1453 69.0214 12.1212 68.8529C12.1164 68.8745 12.1164 68.8961 12.1116 68.9134C12.0587 69.259 12.203 69.609 12.6167 69.7127C12.9534 69.7948 13.4536 69.609 13.5065 69.259C13.5498 68.9782 13.5258 68.7233 13.2949 68.5116C13.1025 68.3388 12.8091 68.2567 12.5397 68.2826C12.2607 68.3128 12.0154 68.4597 11.8663 68.6714C11.8038 68.7622 11.7172 68.8875 11.7124 68.9912C11.7076 69.1424 11.6354 69.0344 11.7893 68.9739C12.1405 69.1035 12.4964 69.2331 12.8476 69.3627C12.785 68.9609 12.6696 68.5764 12.5012 68.1962C12.2704 67.6864 11.5392 67.5395 11.1833 68.0407C10.8658 68.4857 10.6205 68.9609 10.4377 69.4578C10.9091 69.5139 11.3805 69.5744 11.8567 69.6306C11.8086 69.1208 11.7557 68.611 11.7076 68.1055C11.6739 67.7555 11.3997 67.4574 10.9861 67.4574C10.6157 67.4704 10.2213 67.7685 10.2549 68.1184Z" fill="#727272"/>
<path d="M11.9917 77.2605C12.0398 78.0079 12.4582 78.6603 13.1845 79.0405C13.6656 79.2868 14.262 78.9714 14.2716 78.4788C14.2764 78.0986 14.3726 77.7487 14.5362 77.3987C14.1321 77.4938 13.7329 77.5888 13.3288 77.6839C13.5261 77.8999 13.7377 78.09 13.9734 78.2671C14.3582 78.5566 15.0605 78.5004 15.1807 77.982C15.2096 77.8653 15.2432 77.766 15.2865 77.658C14.8825 77.753 14.4833 77.8481 14.0792 77.9431C14.1225 77.9215 14.1466 77.9474 14.1417 78.0166C14.2957 78.3406 14.8248 78.4097 15.1278 78.2499C15.4982 78.0554 15.5415 77.6882 15.3875 77.3642C15.325 77.2345 15.224 77.1179 15.0989 77.0272C14.6516 76.7118 14.1033 76.8284 13.8916 77.3123C13.8435 77.4203 13.8099 77.524 13.7858 77.6363C14.1898 77.5413 14.5891 77.4462 14.9931 77.3512C14.7574 77.1741 14.5458 76.9796 14.3486 76.7679C13.9638 76.3445 13.3288 76.6599 13.1413 77.0531C12.9296 77.5067 12.8334 77.9863 12.8238 78.4788C13.1845 78.2931 13.5453 78.1073 13.9109 77.9172C13.6319 77.7746 13.4491 77.5499 13.4299 77.2561C13.3818 76.4353 11.9387 76.4266 11.9917 77.2605Z" fill="#727272"/>
<path d="M14.964 86.1477C15.1324 86.5365 15.3344 86.8951 15.6086 87.2364C16.0367 87.7635 16.8881 87.5691 16.9554 86.9081C16.9602 86.8692 17.0372 86.3896 17.0083 86.368C16.8015 86.4847 16.5995 86.6013 16.3926 86.718C16.4407 86.7784 16.484 86.8346 16.5369 86.8908C16.7197 87.0982 16.9458 87.2753 17.2392 87.3487C17.4653 87.4006 17.7298 87.3747 17.927 87.2623C18.0569 87.1846 18.1483 87.0938 18.2156 86.9685C18.2397 86.9167 18.2637 86.8649 18.2878 86.813C18.3984 86.5019 18.1868 86.4501 17.6577 86.6575C17.9463 87.4438 19.3412 87.1068 19.0478 86.3118C18.8457 85.7675 18.2589 85.4132 17.6192 85.6292C17.3594 85.7199 17.1334 85.8928 17.0083 86.1174C16.9698 86.1865 16.8303 86.4847 16.8784 86.5711C17.1574 86.4285 17.4316 86.2816 17.7106 86.139C17.6721 86.0958 17.6336 86.0569 17.5999 86.0137C17.3691 85.5946 16.7005 85.357 16.2195 85.5126C15.5412 85.7286 15.5701 86.3766 15.5172 86.9124C15.9645 86.8044 16.4119 86.6964 16.864 86.584C16.6668 86.3421 16.4888 86.0872 16.3638 85.8063C16.0174 85.0373 14.6225 85.37 14.964 86.1477Z" fill="#727272"/>
<path d="M22.6746 52.7331C22.1551 53.0831 21.7222 53.4979 21.4384 54.0293C21.068 54.7206 21.929 55.2649 22.5736 54.8156C22.7275 54.7076 22.8814 54.5996 23.0353 54.4916C23.1027 54.444 23.17 54.3965 23.2422 54.349C23.2758 54.3231 23.3095 54.3015 23.3432 54.2755C23.4634 54.1978 23.4009 54.2107 23.1556 54.3101C23.0353 54.2799 22.9151 54.2496 22.79 54.2237C22.8044 54.2323 22.8189 54.241 22.8333 54.2496C22.7467 54.1719 22.6601 54.0941 22.5736 54.0163C22.5591 53.9601 22.5399 53.9083 22.5255 53.8521C22.5303 53.7917 22.5303 53.783 22.5158 53.8349C22.4822 53.8565 22.4726 54.0034 22.4726 54.025C22.4389 54.2237 22.4581 54.4181 22.5736 54.5996C22.6794 54.7638 22.867 54.9107 23.0738 54.9582C23.1604 54.9798 23.271 54.9884 23.3624 54.9884C23.449 54.9884 23.526 54.9755 23.6029 54.9495C23.7039 54.9236 23.6703 54.915 23.4971 54.9236C23.3913 54.8674 23.2855 54.8113 23.1796 54.7551C23.1941 54.7681 23.2085 54.781 23.2229 54.794C23.1604 54.6989 23.0979 54.6039 23.0353 54.5088C23.0401 54.5218 23.0449 54.5391 23.0498 54.5521C23.0738 54.3836 23.0979 54.2194 23.1219 54.0509C23.1123 54.0638 23.1075 54.0768 23.0979 54.0898C22.6601 54.8242 23.9059 55.481 24.3437 54.7422C24.5313 54.4311 24.488 54.0811 24.1946 53.8349C24.0406 53.7052 23.8338 53.6275 23.6222 53.6232C23.5019 53.6188 23.3624 53.688 23.2566 53.6793C23.3768 53.7096 23.4971 53.7398 23.6222 53.7657C23.6029 53.7528 23.5837 53.7398 23.5692 53.7312C23.6558 53.8089 23.7424 53.8867 23.829 53.9645C23.8194 53.9472 23.8097 53.9299 23.8001 53.9126C23.8338 54.0206 23.8675 54.1286 23.8963 54.241C23.8867 54.1589 23.9011 54.2021 23.9348 54.0811C23.9733 53.9299 23.9781 53.7657 23.9396 53.6102C23.8578 53.2991 23.5981 53.0745 23.2518 53.0183C22.891 52.9578 22.6457 53.1263 22.3715 53.3164C22.0974 53.5065 21.8232 53.7009 21.549 53.891C21.929 54.1546 22.3042 54.4138 22.6842 54.6773C22.8574 54.3576 23.0786 54.0638 23.4009 53.8478C23.7135 53.6404 23.8723 53.2862 23.6606 52.9621C23.4827 52.6899 22.992 52.5258 22.6746 52.7331Z" fill="#727272"/>
<path d="M19.8512 60.0262C19.731 60.5446 19.6155 61.0631 19.4953 61.5859C19.3462 62.2469 20.1446 62.6271 20.7026 62.2167C20.8661 62.0957 21.0104 61.9445 21.1163 61.7803C21.1884 61.668 21.275 61.439 21.3135 61.3828C21.2269 61.4606 21.1403 61.5383 21.0537 61.6161C21.0778 61.6031 21.097 61.5902 21.1211 61.5729C21.0008 61.6031 20.8806 61.6334 20.7555 61.6593C20.7844 61.655 20.8132 61.655 20.8421 61.6507C20.7218 61.6204 20.6016 61.5902 20.4765 61.5643C20.3611 61.5167 20.3563 61.3482 20.3899 61.5686C20.3996 61.6247 20.414 61.6723 20.4332 61.7241C20.5006 61.9185 20.6208 62.0914 20.8036 62.2123C20.972 62.3247 21.1692 62.3852 21.3808 62.3808C21.5107 62.3765 21.6309 62.3463 21.7464 62.2944C21.8089 62.2728 21.8618 62.2426 21.9099 62.2037C22.035 62.1259 22.0013 62.1302 21.8137 62.208C21.6935 62.1778 21.5732 62.1475 21.4482 62.1216C21.4674 62.1302 21.4722 62.1389 21.4866 62.1734C21.7945 62.9555 23.1894 62.6185 22.8767 61.8278C22.7421 61.4865 22.5448 61.1711 22.1745 61.0026C21.9821 60.9119 21.7416 60.886 21.5299 60.9292C21.3183 60.9724 21.1932 61.0977 21.0104 61.1754C21.1307 61.1452 21.2509 61.1149 21.376 61.089C21.352 61.089 21.3231 61.089 21.299 61.089C21.4193 61.1193 21.5395 61.1495 21.6646 61.1754C21.7945 61.3785 21.833 61.4087 21.78 61.2662C21.7704 61.21 21.7608 61.1538 21.7512 61.0977C21.7175 60.9853 21.6646 60.8687 21.5973 60.7736C21.4193 60.523 21.1259 60.3589 20.794 60.3632C20.4669 60.3675 20.1687 60.536 20.0148 60.7909C19.8849 61.0069 19.8945 61.1365 19.6732 61.3007C20.0773 61.5124 20.4765 61.7198 20.8806 61.9315C21.0008 61.413 21.1163 60.8946 21.2365 60.3761C21.4289 59.5552 20.0388 59.2096 19.8512 60.0262Z" fill="#727272"/>
<path d="M19.2932 66.6495C19.1441 67.3451 19.0479 68.045 19.0239 68.7493C19.0046 69.2418 19.6492 69.5529 20.1109 69.3109C20.3226 69.1986 20.4765 69.0474 20.5919 68.853C20.6352 68.7795 20.7603 68.611 20.7362 68.5462C20.7314 68.5376 20.6881 68.5937 20.7074 68.5851C20.5871 68.6153 20.4669 68.6456 20.3418 68.6715C20.3322 68.6758 20.3178 68.6758 20.3081 68.6801C20.2216 68.6024 20.135 68.5246 20.0484 68.4468C20.1302 68.5419 20.1205 68.5333 20.1302 68.6326C20.1831 69.164 20.895 69.5183 21.3615 69.0906C21.4144 69.0387 21.4674 68.9912 21.5251 68.9437C21.4241 68.9869 21.3182 68.9783 21.2172 68.9264C21.1547 68.8314 21.0922 68.7363 21.0296 68.6413C21.0393 68.6672 21.0489 68.6931 21.0633 68.719C21.198 69.0474 21.5539 69.2721 21.9532 69.1727C22.3043 69.0863 22.5929 68.7061 22.4582 68.3734C22.083 67.4575 20.9912 67.5741 20.3418 68.1747C20.7507 68.3259 21.1643 68.4814 21.5732 68.6326C21.5155 68.0062 21.1691 67.3278 20.3418 67.3754C20.0051 67.3926 19.7069 67.5698 19.5289 67.8247C19.4664 67.9154 19.4231 68.0191 19.375 68.1185C19.3221 68.2265 19.2307 68.2654 19.3798 68.1876C19.7406 68.3734 20.1013 68.5592 20.4669 68.7493C20.4861 68.1574 20.5583 67.5741 20.6833 66.9908C20.8613 66.1786 19.4712 65.833 19.2932 66.6495Z" fill="#727272"/>
<path d="M20.0097 74.0504C20.1732 74.6294 20.3704 75.1953 20.6013 75.7527C20.7889 76.2063 21.3901 76.3964 21.8086 76.0378C21.9914 75.878 22.1165 75.6922 22.179 75.4675C22.203 75.3768 22.2223 75.2688 22.2271 75.1781C22.2415 74.9015 22.2079 75.1305 22.2367 75.1176C22.1165 75.1478 21.9962 75.1781 21.8711 75.204C21.9048 75.204 21.9337 75.1997 21.9673 75.1997C21.8471 75.1694 21.7268 75.1392 21.6018 75.1132C21.5056 75.0744 21.5344 75.0355 21.6114 75.1565C21.6499 75.2169 21.6836 75.2688 21.7317 75.3249C21.8808 75.4978 22.0635 75.6144 22.3089 75.6447C22.5253 75.6706 22.7321 75.6231 22.9149 75.5107C23.0159 75.4459 23.1073 75.3725 23.1747 75.2774C23.2035 75.2256 23.2324 75.1737 23.2564 75.1219C23.3526 74.9534 23.2709 74.9966 23.0111 75.2558C22.8813 75.2558 22.7562 75.2558 22.6263 75.2558C22.5686 75.2126 22.5157 75.1651 22.458 75.1219C22.4243 75.0139 22.3906 74.9059 22.3618 74.7935C22.3618 74.8195 22.3618 74.8454 22.3618 74.8713C22.3473 75.7052 23.7904 75.7052 23.8048 74.8713C23.8144 74.4349 23.4777 74.0936 23.0111 74.0072C22.761 73.9597 22.5109 74.0072 22.3041 74.1411C22.203 74.2059 22.1213 74.2794 22.0539 74.3701C22.0395 74.396 22.0251 74.4263 22.0058 74.4522C21.8808 74.6682 21.9144 74.6639 22.1117 74.4393C22.2319 74.409 22.3522 74.3788 22.4772 74.3528C22.4532 74.3572 22.4291 74.3572 22.4051 74.3615C22.5253 74.3917 22.6456 74.422 22.7706 74.4479C22.9775 74.5386 22.8716 74.5084 22.7947 74.3874C22.737 74.2924 22.66 74.2016 22.5734 74.1325C22.2992 73.9122 21.9385 73.856 21.597 73.964C21.3228 74.0504 21.116 74.2405 20.9765 74.4609C20.8995 74.5861 20.861 74.7114 20.8322 74.8497C20.8177 74.9102 20.8322 75.083 20.7889 75.1219C21.1929 75.2169 21.5922 75.312 21.9962 75.407C21.7653 74.8497 21.5681 74.2794 21.4046 73.7048C21.1689 72.9012 19.7788 73.2425 20.0097 74.0504Z" fill="#727272"/>
<path d="M20.7364 80.2417C20.9961 80.9287 21.328 81.5897 21.7369 82.2119C22.0303 82.6569 22.6796 82.605 22.9827 82.2119C23.0644 82.1038 23.1222 81.9915 23.1606 81.8662C23.1655 81.8273 23.1703 81.7928 23.1799 81.7539C23.2568 81.5033 23.1895 81.5119 22.9682 81.7841C22.8384 81.7841 22.7133 81.7841 22.5834 81.7841C22.3814 81.728 22.4728 81.7409 22.5786 81.8446C22.6556 81.9181 22.7518 81.9958 22.8528 82.0477C23.0596 82.1514 23.3049 82.1903 23.5406 82.173C24.0794 82.1384 24.4497 81.8187 24.6277 81.3823C24.95 80.6003 23.5551 80.259 23.2376 81.0367C23.329 80.8207 23.5551 80.9416 23.5166 80.8379C23.4877 80.7645 23.3194 80.6651 23.2424 80.6262C23.0067 80.5053 22.7229 80.4793 22.468 80.5571C22.2323 80.6262 22.0447 80.7861 21.9245 80.9805C21.8186 81.1533 21.8475 81.4126 21.7321 81.5595C22.1457 81.5595 22.5642 81.5595 22.9779 81.5595C22.6267 81.028 22.3429 80.4837 22.1217 79.9004C21.8331 79.1141 20.4382 79.4511 20.7364 80.2417Z" fill="#727272"/>
<path d="M22.6363 87.6339C22.6411 87.9925 22.6988 88.3511 22.8239 88.6881C22.9153 88.9344 23.1317 89.1159 23.4251 89.1504C23.6897 89.1807 24.0216 89.0727 24.1418 88.8394C24.2236 88.6838 24.3054 88.5283 24.3871 88.3771C24.4256 88.3036 24.4641 88.2345 24.4978 88.161C24.517 88.1265 24.5362 88.0876 24.5555 88.053C24.594 87.9882 24.594 87.9882 24.5555 88.053C24.4497 88.1092 24.3438 88.1654 24.238 88.2215C24.2525 88.2172 24.2717 88.2086 24.2861 88.2042C24.1563 88.2042 24.0312 88.2042 23.9013 88.2042C23.8773 88.1956 23.8484 88.1826 23.8244 88.174C23.7378 88.0962 23.6512 88.0185 23.5646 87.9407C23.4925 87.8327 23.5598 87.9234 23.5887 87.9969C23.6127 88.066 23.6416 88.1308 23.6656 88.1999C23.7185 88.3339 23.7715 88.4721 23.8196 88.6061C23.9446 88.9387 24.315 89.1547 24.7094 89.0597C25.0654 88.9733 25.3395 88.5931 25.2145 88.2604C25.0076 87.7247 24.8345 86.8433 23.9975 86.9427C23.3482 87.0204 23.1317 87.729 22.8912 88.187C23.3289 88.2388 23.7715 88.2907 24.2092 88.3425C24.1178 88.0876 24.0745 87.8802 24.0697 87.6296C24.0649 87.2926 23.7426 86.9643 23.3482 86.9816C22.9682 86.9988 22.6315 87.271 22.6363 87.6339Z" fill="#727272"/>
<path d="M29.2644 88.4203C29.2259 88.714 29.1875 89.0122 29.149 89.3059C29.1105 89.5825 29.3991 89.8633 29.6781 89.9324C30.0052 90.0145 30.3082 89.8719 30.491 89.6343C30.6208 89.4658 30.7507 89.3016 30.8806 89.1331C30.9383 89.0554 31.0008 88.9819 31.0586 88.9041C31.0826 88.8739 31.1067 88.8437 31.1307 88.8134C31.2365 88.6838 31.2221 88.6924 31.0922 88.8393C30.972 88.8696 30.8517 88.8998 30.7267 88.9258C30.7507 88.9258 30.77 88.9258 30.794 88.9258C30.6738 88.8955 30.5535 88.8653 30.4284 88.8393C30.2841 88.6147 30.236 88.5715 30.2841 88.7097C30.2986 88.7616 30.3082 88.8177 30.3226 88.8696C30.3467 88.9776 30.3707 89.0813 30.3996 89.1893C30.4525 89.414 30.4765 89.6775 30.6064 89.8806C30.7315 90.0707 30.9383 90.2348 31.1788 90.2953C31.5492 90.3861 31.8522 90.2176 32.0687 89.9583C32.3044 89.6775 32.1168 89.2325 31.8089 89.0726C31.4386 88.8782 31.0586 89.0251 30.8229 89.3059C30.8133 89.3189 30.8036 89.3319 30.794 89.3405C31.0008 89.2325 31.2077 89.1245 31.4193 89.0208C31.4049 89.0208 31.3905 89.0251 31.376 89.0251C31.4963 89.0554 31.6165 89.0856 31.7416 89.1115C31.8666 89.1677 31.9436 89.4831 31.8715 89.1634C31.8522 89.0726 31.8282 88.9862 31.8089 88.8955C31.7704 88.7356 31.7368 88.5758 31.6983 88.4159C31.6117 88.0789 31.3856 87.7506 30.9912 87.6512C30.5535 87.5432 30.2072 87.7679 29.9619 88.0617C29.7166 88.3598 29.4857 88.6665 29.25 88.969C29.6973 89.077 30.1447 89.185 30.5968 89.2973C30.6353 89.0035 30.6738 88.7054 30.7122 88.4116C30.7555 88.0617 30.3467 87.7635 29.9907 87.7635C29.5626 87.7722 29.3125 88.0746 29.2644 88.4203Z" fill="#727272"/>
<path d="M29.9572 76.5865C29.7793 77.2778 29.6927 77.9864 29.7071 78.6949C29.7167 79.3041 30.7172 79.6195 31.0539 79.0233C31.1982 78.7641 31.3425 78.5092 31.4868 78.2499C31.5927 78.0598 31.6696 77.8222 31.862 77.6883C31.7562 77.7444 31.6504 77.8006 31.5446 77.8568C31.5446 77.8524 31.5446 77.8481 31.5494 77.8438C31.3185 77.6839 31.0876 77.5284 30.8519 77.3686C30.9433 77.6753 31.0347 77.9821 31.1261 78.2888C31.2415 78.6733 31.7947 78.9066 32.1843 78.6777C32.2516 78.6388 32.319 78.5956 32.3863 78.5567C33.1559 78.0987 32.4344 76.9754 31.66 77.4377C31.5927 77.4766 31.5253 77.5198 31.458 77.5587C31.8091 77.6883 32.1651 77.8179 32.5162 77.9475C32.4248 77.6407 32.3334 77.334 32.242 77.0272C32.1602 76.755 31.862 76.5477 31.5446 76.552C30.5296 76.5693 30.1833 77.7012 29.8081 78.3752C30.2555 78.4832 30.7028 78.5912 31.1549 78.7036C31.1453 78.103 31.203 77.5241 31.3522 76.9365C31.5542 76.1199 30.1641 75.7743 29.9572 76.5865Z" fill="#727272"/>
<path d="M28.5815 66.8913C28.6152 67.4011 28.644 67.9066 28.6777 68.4164C28.7162 69.0559 29.6301 69.3021 30.0245 68.7448C30.3035 68.3473 30.5825 67.9541 30.8615 67.5567C30.4478 67.5567 30.0293 67.5567 29.6157 67.5567C29.7167 67.7122 29.7792 67.8548 29.7888 68.0362C29.8225 68.6065 30.5488 68.8787 31.0202 68.4942C31.3858 68.2004 31.6214 67.8461 31.7994 67.4357C31.4483 67.5653 31.0923 67.6949 30.7412 67.8245C30.7412 67.8332 30.7412 67.8418 30.7364 67.8461C30.6739 67.7511 30.6113 67.656 30.5488 67.561C30.5632 67.5869 30.5729 67.6171 30.5873 67.6431C30.7364 67.9671 31.0635 68.1961 31.4771 68.0967C31.8139 68.0146 32.1313 67.6258 31.9822 67.2974C31.8571 67.0339 31.7273 66.874 31.4675 66.7012C31.0587 66.429 30.5584 66.7401 30.4093 67.09C30.3227 67.2888 30.1736 67.4357 30.0005 67.5783C30.4093 67.7295 30.823 67.885 31.2318 68.0362C31.2078 67.6301 31.0923 67.2542 30.8615 66.9043C30.5777 66.4765 29.9043 66.4938 29.6157 66.9043C29.3367 67.3017 29.0577 67.6949 28.7787 68.0924C29.226 68.2004 29.6734 68.3084 30.1255 68.4207C30.0919 67.9109 30.063 67.4054 30.0293 66.8956C29.9716 66.0618 28.5286 66.0574 28.5815 66.8913Z" fill="#727272"/>
<path d="M28.9709 58.3239C28.9276 58.6523 28.9083 58.9806 28.918 59.309C28.9324 59.7583 29.5385 60.1731 30.005 59.8707C30.2455 59.7151 30.3946 59.538 30.4764 59.2831C30.4957 59.2226 30.5149 59.1535 30.5245 59.093C30.5341 59.0368 30.5726 59.0325 30.5197 59.0757C30.2696 59.2831 30.005 59.5812 29.6058 59.1491C29.6491 59.1967 29.6347 59.1923 29.6058 59.1362C29.6395 59.201 29.6635 59.2744 29.6972 59.3392C29.7549 59.4516 29.8415 59.5509 29.9377 59.6374C30.2359 59.9009 30.6784 59.9528 31.0392 59.767C31.3807 59.5942 31.4913 59.1794 31.2989 58.8813C31.0969 58.5745 30.6544 58.4752 30.3129 58.648C30.2984 58.6566 30.2792 58.6653 30.2648 58.6739C30.385 58.6437 30.5053 58.6134 30.6303 58.5875C30.6688 58.5832 31.0151 58.756 30.9863 58.7646C31.0055 58.7992 31.0055 58.7992 30.9911 58.7689C30.9767 58.7344 30.9622 58.6998 30.943 58.6653C30.8853 58.54 30.8179 58.4233 30.7121 58.3196C30.4764 58.0993 30.1108 57.9913 29.779 58.0863C29.4663 58.1727 29.2595 58.3974 29.1585 58.6696C29.1344 58.7301 29.1248 58.7905 29.1055 58.8554C29.0959 58.8856 29.0863 58.9115 29.0815 58.9418C29.0623 58.9979 29.0623 58.9979 29.0863 58.9418C29.1152 58.8597 29.1777 58.7949 29.2739 58.7517C29.6347 58.9374 29.9954 59.1232 30.361 59.3133C30.3513 58.985 30.3706 58.6566 30.4139 58.3283C30.462 57.9913 30.0483 57.6672 29.6924 57.6802C29.2643 57.6975 29.0238 57.9653 28.9709 58.3239Z" fill="#727272"/>
<path d="M28.5282 51.6789C28.3936 52.1542 28.4609 52.6424 28.7447 53.0615C29.0814 53.5713 29.8558 53.4158 30.0626 52.906C30.1396 52.7159 30.0242 53.0226 30.0963 52.8282C30.1252 52.7547 30.1492 52.7893 30.0771 52.8195C29.8558 52.9232 29.5576 52.8541 29.4903 52.5949C29.5816 52.9362 30.0097 53.1393 30.3801 53.0485C30.7649 52.9535 30.9766 52.5949 30.8852 52.2492C30.7553 51.7567 30.1588 51.4932 29.6249 51.6055C29.1006 51.7221 28.8457 52.1326 28.6725 52.556C29.1103 52.5042 29.5528 52.4523 29.9905 52.4005C29.9183 52.2881 29.9087 52.2968 29.8943 52.1628C29.9039 52.232 29.8991 52.1456 29.8991 52.124C29.9087 51.9339 29.8702 52.2017 29.9183 52.0159C30.0097 51.6876 29.7981 51.2987 29.4133 51.2167C29.0429 51.1475 28.6293 51.3247 28.5282 51.6789Z" fill="#727272"/>
<path d="M7.90302 50.1496C7.69138 50.4002 7.49897 50.6638 7.33062 50.9403C7.04683 51.3939 7.52783 52.1025 8.14352 51.8908C8.36478 51.8173 8.58123 51.7396 8.8025 51.6661C8.50908 51.5149 8.21086 51.3637 7.91264 51.2125C7.95112 51.3119 7.97036 51.3767 7.96555 51.476C7.96074 51.8044 8.30225 52.1543 8.68705 52.1241C9.04781 52.0982 9.35565 52.0204 9.67792 51.8822C10.0291 51.7309 10.1204 51.2773 9.93767 50.9965C9.72602 50.6724 9.30274 50.6119 8.95161 50.7632C8.87946 50.7934 8.74478 50.8236 8.68705 50.828C8.92756 51.044 9.16806 51.26 9.40856 51.476C9.41337 51.2686 9.3797 51.0613 9.30274 50.8668C9.18249 50.5601 8.8025 50.2836 8.41288 50.4132C8.19162 50.4866 7.97517 50.5644 7.75391 50.6379C8.02327 50.9533 8.29744 51.273 8.5668 51.5884C8.73997 51.3119 8.92756 51.0483 9.1392 50.7977C9.37489 50.5169 9.1873 50.0719 8.87946 49.912C8.5187 49.7262 8.13871 49.8688 7.90302 50.1496Z" fill="#727272"/>
<path d="M3.81906 57.4253C3.54489 57.9653 3.3092 58.5184 3.1168 59.0887C2.99655 59.4429 3.2611 59.7713 3.62185 59.888C3.92969 59.9873 4.26159 59.9268 4.53095 59.7713C4.64639 59.7022 4.72335 59.633 4.80993 59.5423C5.14183 59.188 4.68487 59.646 4.41551 59.3479C4.35298 59.2528 4.29045 59.1578 4.22792 59.0627C4.18944 58.9418 4.2183 59.1924 4.2183 59.188C4.23273 59.2874 4.26159 59.3911 4.31931 59.4818C4.42994 59.6503 4.63196 59.7886 4.83879 59.8404C5.22841 59.9355 5.72865 59.8015 5.897 59.4473C6.05092 59.1275 6.00282 58.7517 5.63726 58.5616C5.33423 58.4017 4.80512 58.4708 4.6512 58.7949C4.66563 58.7776 4.68006 58.7603 4.6993 58.7473C4.80512 58.6912 4.91094 58.635 5.01676 58.5788C5.16107 58.6177 5.30537 58.6566 5.44967 58.6955C5.5122 58.7906 5.57473 58.8856 5.63726 58.9807C5.67574 59.1016 5.64688 58.8035 5.63726 58.7733C5.59878 58.6437 5.53144 58.527 5.43524 58.432C5.25727 58.2635 5.02638 58.1641 4.76664 58.1511C4.53095 58.1425 4.3145 58.203 4.1221 58.3239C4.03071 58.3801 3.95374 58.4449 3.88159 58.5227C3.58337 58.8338 3.7902 58.5702 4.01147 58.6393C4.17982 58.9072 4.34817 59.1708 4.51652 59.4386C4.67044 58.9763 4.85322 58.527 5.07448 58.0863C5.23322 57.7666 5.1755 57.3907 4.81474 57.2006C4.49728 57.0321 3.97779 57.1056 3.81906 57.4253Z" fill="#727272"/>
<path d="M2.22218 65.0681C2.06825 65.8112 2.06825 66.5327 2.2318 67.2759C2.31357 67.6431 2.75609 67.7814 3.12165 67.7295C3.3333 67.6993 3.53051 67.5913 3.67962 67.4487C3.74215 67.3882 3.79987 67.3148 3.85278 67.2456C3.88164 67.2067 3.90569 67.1679 3.92974 67.1247C3.97303 67.0642 3.9586 67.0685 3.87683 67.129C3.74696 67.129 3.6219 67.129 3.49203 67.129C3.5257 67.1376 3.55937 67.1463 3.59304 67.1549C3.48722 67.0987 3.3814 67.0426 3.27558 66.9864C3.22266 66.887 3.21785 66.8913 3.26596 66.9994C3.29001 67.0512 3.31406 67.1031 3.33811 67.1549C3.41507 67.2845 3.52089 67.3882 3.65557 67.466C3.97784 67.6604 4.27125 67.6474 4.61758 67.5049C4.97352 67.3623 5.0601 66.8957 4.87732 66.6192C4.66568 66.2908 4.2472 66.2433 3.89126 66.3859C3.86721 66.3945 3.83835 66.4075 3.8143 66.4161C4.00189 66.3945 4.18467 66.3729 4.37227 66.3513C4.34341 66.3426 4.31454 66.3383 4.28568 66.3297C4.39151 66.3859 4.49733 66.442 4.60315 66.4982C4.63201 66.5846 4.63201 66.5932 4.60796 66.5284C4.58391 66.4593 4.55505 66.3945 4.52138 66.334C4.47809 66.2606 4.42999 66.1871 4.36264 66.1266C4.16062 65.9322 3.88164 65.8415 3.58823 65.8674C3.3333 65.889 3.10722 66.0013 2.92925 66.1655C2.84267 66.2433 2.77052 66.334 2.70799 66.4291C2.69356 66.455 2.67432 66.4809 2.65989 66.5068C2.5685 66.6278 2.59255 66.6148 2.73685 66.4723C3.03026 66.6235 3.32849 66.7747 3.62671 66.9259C3.51608 66.4247 3.51127 65.9106 3.61709 65.4094C3.68924 65.0638 3.51127 64.7095 3.11203 64.6101C2.75609 64.5281 2.29433 64.7225 2.22218 65.0681Z" fill="#727272"/>
<path d="M3.25192 74.4219C3.45394 74.7848 3.65115 75.1477 3.85318 75.5106C4.03115 75.8303 4.51696 75.9038 4.83924 75.7439C5.09898 75.6143 5.27695 75.4069 5.35872 75.1477C5.3972 75.0311 5.42125 74.8842 5.40682 74.7632C5.39239 74.6249 5.45973 74.6638 5.37796 74.7286C5.27214 74.7848 5.16632 74.841 5.0605 74.8971C5.05088 74.9014 5.04126 74.9014 5.03164 74.9058C4.91139 74.8755 4.79114 74.8453 4.66607 74.8194C4.9162 74.949 5.03645 75.1564 5.40201 75.1564C5.83491 75.1564 5.93112 74.9274 6.19086 74.6984C6.08504 74.7546 5.97922 74.8107 5.8734 74.8669C5.7339 74.7891 5.59441 74.7113 5.45492 74.6293C5.51264 74.9749 5.99846 75.165 6.34478 75.0829C6.75844 74.9792 6.90755 74.6336 6.84983 74.2836C6.78249 73.8948 6.37364 73.6053 5.95036 73.5664C5.45492 73.5232 5.13265 73.7652 4.89696 74.1281C4.98354 74.0503 5.07012 73.9725 5.1567 73.8948C5.13265 73.9121 5.10379 73.9293 5.07974 73.9466C5.19999 73.9164 5.32024 73.8861 5.4453 73.8602C5.42125 73.8602 5.39239 73.8602 5.36834 73.8602C5.48859 73.8905 5.60884 73.9207 5.7339 73.9466C5.64732 73.9034 5.42125 73.6831 5.22885 73.6356C4.95468 73.5664 4.66607 73.6183 4.44 73.7695C4.23798 73.9034 4.09849 74.1022 4.02634 74.3139C3.97824 74.4478 4.03115 74.72 3.95419 74.815C4.04077 74.7373 4.12735 74.6595 4.21393 74.5817C4.18507 74.5947 4.15621 74.612 4.12254 74.6249C4.44962 74.7027 4.78152 74.7805 5.1086 74.8582C4.90658 74.4953 4.70936 74.1324 4.50734 73.7695C4.08406 73.0177 2.83826 73.6744 3.25192 74.4219Z" fill="#727272"/>
<path d="M7.70573 84.048C7.68168 84.6053 8.32623 84.9207 8.86976 84.7695C9.1295 84.696 9.3171 84.5318 9.44216 84.3245C9.4614 84.2899 9.48064 84.251 9.49988 84.2164C9.6057 84.0652 9.49988 84.1084 9.17279 84.3547C9.02368 84.3374 9.09102 84.3374 9.19685 84.3893C9.53836 84.5578 9.98569 84.4627 10.1829 84.156C10.3753 83.8579 10.2647 83.4388 9.92316 83.2703C9.56722 83.0931 9.16317 82.9894 8.76875 83.1363C8.56673 83.2141 8.39838 83.3437 8.28294 83.5165C8.24927 83.5641 8.2156 83.6202 8.19636 83.6764C8.18674 83.6937 8.17712 83.711 8.1675 83.7282C8.41762 83.4777 8.67736 83.456 8.95153 83.6634C9.01406 83.7585 9.07659 83.8535 9.13912 83.9486C9.14393 83.9831 9.14874 84.0177 9.15355 84.0523C9.16798 83.711 8.81204 83.3869 8.43205 83.4042C8.02319 83.4172 7.72016 83.685 7.70573 84.048Z" fill="#727272"/>
<path d="M34.3678 51.9426C34.4544 52.3314 34.6035 52.6943 34.7911 53.0529C34.969 53.3856 35.4548 53.4288 35.7771 53.2862C35.9599 53.2041 36.109 53.0572 36.2052 52.8974C36.2341 52.8499 36.2533 52.798 36.2822 52.7462C36.4361 52.448 36.2774 52.8974 35.907 52.8628C35.7867 52.8326 35.6665 52.8023 35.5414 52.7764C35.4597 52.7418 35.6617 52.8585 35.6617 52.8585C35.7386 52.9103 35.7916 52.9406 35.8829 52.9751C36.0705 53.0486 36.2629 53.0616 36.465 53.0356C36.8979 52.9708 37.1528 52.7202 37.3163 52.3703C37.4654 52.0462 37.1528 51.6574 36.8113 51.571C36.3976 51.4673 36.0753 51.7006 35.9214 52.0246C36.0898 51.7438 36.3014 51.6833 36.5515 51.8432C36.5323 51.8259 36.5131 51.8086 36.489 51.7957C36.3976 51.7136 36.2245 51.6272 36.0994 51.5969C35.8685 51.5408 35.6184 51.5753 35.4164 51.6833C35.248 51.7741 35.1278 51.9166 35.046 52.0722C35.0268 52.1111 35.0027 52.1543 34.9835 52.1975C34.9306 52.3357 34.9594 52.2061 35.046 52.1715C35.3731 52.2493 35.705 52.3271 36.0321 52.4048C35.8974 52.1499 35.8156 51.8821 35.7531 51.6056C35.6809 51.2599 35.2192 51.0655 34.8632 51.1519C34.4736 51.2426 34.2956 51.5969 34.3678 51.9426Z" fill="#727272"/>
<path d="M36.0417 59.3608C36.1331 59.7712 36.2293 60.1817 36.3207 60.5921C36.4746 61.2704 37.4895 61.1451 37.7108 60.5921C37.783 60.4063 37.908 60.2854 38.0668 60.1557C37.6868 60.1125 37.3116 60.0693 36.9316 60.0261C37.0566 60.2854 37.1865 60.5489 37.3116 60.8081C37.4559 61.1062 38.0138 61.2359 38.2976 61.0414C38.4708 60.9248 38.6103 60.8211 38.7209 60.6483C38.7594 60.5878 38.8027 60.5143 38.8267 60.4452C38.8364 60.415 38.8508 60.3847 38.87 60.3588C38.9855 60.1687 38.7642 60.1082 38.2014 60.1773C38.1485 60.523 38.5718 60.8254 38.9229 60.8254C39.3558 60.8254 39.5915 60.5273 39.6444 60.1773C39.7262 59.6373 39.1634 59.1491 38.5814 59.1491C38.288 59.1491 38.0235 59.2657 37.8262 59.4515C37.7349 59.5379 37.6723 59.633 37.6098 59.7367C37.5713 59.8058 37.4222 60.0218 37.5713 59.9224C37.8984 60.0002 38.2303 60.078 38.5574 60.1557C38.4323 59.8965 38.3024 59.633 38.1774 59.3737C37.9802 58.9676 37.3501 58.9935 37.0422 59.2441C36.6959 59.525 36.4746 59.8619 36.3159 60.2508C36.7777 60.2508 37.2442 60.2508 37.706 60.2508C37.6146 59.8403 37.5184 59.4299 37.427 59.0195C37.249 58.1986 35.8541 58.5442 36.0417 59.3608Z" fill="#727272"/>
<path d="M37.3068 69.272C37.2636 69.5961 37.3068 69.9287 37.403 70.2398C37.5233 70.6157 38.0716 70.8706 38.4613 70.6286C38.7162 70.4688 38.8701 70.296 38.9807 70.0367C39.0096 69.9719 39.0336 69.9028 39.0577 69.8337C39.101 69.6954 39.0577 69.8812 38.9326 69.8985C38.8028 69.8985 38.6777 69.8985 38.5478 69.8985C38.4276 69.8553 38.3506 69.7905 38.3314 69.6954C38.317 69.6522 38.3218 69.6652 38.3506 69.7343C38.3651 69.7732 38.3795 69.8164 38.3939 69.8553C38.4757 70.054 38.5911 70.2139 38.7739 70.3478C39.1683 70.633 39.6157 70.5854 40.0005 70.3176C40.3083 70.1015 40.2506 69.6263 40.0005 69.4016C39.6974 69.1294 39.2886 69.1856 38.9807 69.4016C38.9663 69.4146 38.9471 69.4232 38.9326 69.4362C39.0385 69.38 39.1443 69.3239 39.2501 69.2677C39.2309 69.272 39.2116 69.2763 39.1924 69.2807C39.3223 69.2807 39.4473 69.2807 39.5772 69.2807C39.6638 69.2936 39.7888 69.5312 39.7359 69.3887C39.6974 69.2763 39.6493 69.1597 39.582 69.0603C39.38 68.7665 39.024 68.598 38.644 68.6326C38.3073 68.6628 38.0332 68.8529 37.8504 69.1035C37.7734 69.2115 37.7205 69.3325 37.6772 69.4535C37.6628 69.4924 37.6339 69.5485 37.6291 69.5874C37.6243 69.6436 37.6147 69.5745 37.7349 69.501C38.0861 69.6306 38.442 69.7602 38.7931 69.8898C38.7258 69.6781 38.7162 69.488 38.745 69.2677C38.7883 68.9177 38.3795 68.6196 38.0235 68.6196C37.6051 68.6239 37.3549 68.9221 37.3068 69.272Z" fill="#727272"/>
<path d="M36.9078 76.902C36.8693 77.3254 36.9078 77.7401 36.9799 78.1592C37.0665 78.6474 37.8409 78.7727 38.1872 78.4444C38.3123 78.3277 38.4422 78.2111 38.5769 78.103C38.6971 78.008 38.8222 77.9129 38.9184 77.8525C38.5672 77.7228 38.2113 77.5932 37.8602 77.4636C37.9034 77.576 37.9034 77.4463 37.889 77.5673C37.8986 77.4766 37.8313 77.6494 37.8794 77.5759C37.6918 77.8827 37.7976 78.2845 38.1391 78.4616C38.471 78.6345 38.9376 78.5394 39.1252 78.2283C39.332 77.887 39.3994 77.4895 39.2551 77.118C39.1156 76.7637 38.5961 76.4656 38.1969 76.7291C37.8313 76.9711 37.4898 77.2303 37.1771 77.5241C37.5812 77.6192 37.9804 77.7142 38.3845 77.8093C38.3364 77.5284 38.3364 77.2001 38.3604 76.8933C38.3893 76.5563 38.0093 76.2323 37.6389 76.2452C37.2156 76.2712 36.9414 76.539 36.9078 76.902Z" fill="#727272"/>
<path d="M36.4458 85.3657C36.1861 85.7589 35.9889 86.1909 35.8782 86.6402C35.7917 86.9815 35.9937 87.3401 36.3833 87.4395C36.7873 87.5389 37.1337 87.3185 37.2731 86.9859C37.3164 86.8779 37.4607 86.6446 37.5377 86.5538C37.1962 86.5538 36.8595 86.5538 36.518 86.5538C36.4314 86.4588 36.4073 86.3551 36.441 86.2341C36.3785 86.5797 36.542 86.9297 36.9461 87.0334C37.2924 87.1198 37.7686 86.9297 37.8359 86.5797C37.9033 86.2211 37.8311 85.9058 37.5425 85.6379C37.2924 85.4046 36.7633 85.3657 36.5228 85.6379C36.2438 85.949 36.0418 86.2644 35.883 86.6402C36.3448 86.7569 36.8114 86.8692 37.2731 86.9859C37.3645 86.623 37.4848 86.3378 37.6964 86.0224C37.8936 85.72 37.7734 85.3095 37.4367 85.1367C37.0952 84.9552 36.6478 85.0633 36.4458 85.3657Z" fill="#727272"/>
<path d="M41.7271 87.9537C41.4289 88.3037 41.2894 88.7358 41.2654 89.1721C41.2509 89.427 41.4578 89.6733 41.7079 89.764C41.9917 89.8677 42.2658 89.8072 42.4967 89.6301C42.8527 89.3579 43.2086 89.0814 43.5646 88.8092C43.1846 88.766 42.8094 88.7228 42.4294 88.6796C42.4005 88.6407 42.415 88.5845 42.4198 88.5413C42.4246 88.5111 42.5015 88.4074 42.4246 88.5154C42.2177 88.8135 42.3524 89.2283 42.6843 89.4011C43.0306 89.5826 43.4636 89.4659 43.6704 89.1678C43.9157 88.8178 43.9109 88.3728 43.6752 88.0186C43.4203 87.6384 42.896 87.6168 42.54 87.8889C42.1841 88.1611 41.8281 88.4376 41.4722 88.7098C41.881 88.861 42.2947 89.0166 42.7036 89.1678C42.7132 88.9734 42.6651 89.2542 42.7132 89.0684C42.7324 89.0036 42.7517 88.9345 42.7757 88.8697C42.7372 88.9604 42.8334 88.779 42.8334 88.7746C42.8719 88.7142 42.9152 88.658 42.9633 88.6061C43.199 88.3253 43.0114 87.8803 42.7036 87.7204C42.3428 87.526 41.9676 87.6729 41.7271 87.9537Z" fill="#727272"/>
<path d="M44.3921 79.4682C44.2911 79.9608 44.2334 80.4576 44.2286 80.9631C44.219 81.5982 45.2243 81.8574 45.5754 81.2915C45.7919 80.9372 46.0468 80.6304 46.3642 80.3453C46.0708 80.3798 45.7822 80.4144 45.4888 80.4447C45.4744 80.436 45.4551 80.423 45.4407 80.4144C45.3782 80.3194 45.3157 80.2243 45.2531 80.1293C45.2387 80.0904 45.2868 79.9694 45.2387 80.1077C45.205 80.1941 45.1858 80.3323 45.181 80.4144C45.1714 80.6218 45.2387 80.8249 45.3734 80.9934C45.5273 81.1791 45.7822 81.3044 46.0468 81.3044C46.1911 81.3044 46.3594 81.2655 46.4845 81.2051C46.5085 81.1921 46.5278 81.1834 46.5518 81.1705C46.6673 81.1057 46.6336 81.1014 46.4508 81.1575C46.3306 81.1273 46.2103 81.097 46.0853 81.0711C45.8929 80.9847 45.8784 80.8853 45.8977 80.76C45.8448 81.1057 45.9939 81.4556 46.4027 81.5593C46.7394 81.6414 47.2349 81.4556 47.2926 81.1057C47.3503 80.7341 47.3311 80.3582 47.0136 80.0774C46.8549 79.9392 46.6144 79.8571 46.3931 79.8614C46.2488 79.8657 46.0805 79.9089 45.9554 79.9694C45.9217 79.9867 45.763 80.0472 45.8544 80.0299C45.9843 80.0299 46.1093 80.0299 46.2392 80.0299C46.2199 80.0256 46.1959 80.0169 46.1767 80.0126C46.2825 80.0688 46.3883 80.1249 46.4941 80.1811C46.5422 80.5397 46.5855 80.6304 46.6288 80.4533C46.648 80.4101 46.6577 80.3669 46.6673 80.3194C46.6913 80.22 46.7009 80.1163 46.6913 80.0126C46.6721 79.7275 46.5085 79.4553 46.2151 79.33C45.9265 79.2004 45.5802 79.2176 45.3397 79.4293C44.9405 79.7879 44.599 80.1941 44.3248 80.6348C44.7721 80.7428 45.2195 80.8508 45.6716 80.9631C45.6764 80.5786 45.7101 80.1941 45.787 79.8139C45.8544 79.4682 45.6812 79.114 45.282 79.0146C44.926 78.9282 44.4595 79.1226 44.3921 79.4682Z" fill="#727272"/>
<path d="M45.3636 70.5466C45.1568 70.9916 45.152 71.4971 45.3107 71.955C45.532 72.5858 46.4651 72.5556 46.7008 71.955C46.8211 71.6439 47.0375 71.3977 47.3117 71.1817C46.9028 71.0304 46.4892 70.8749 46.0803 70.7237C46.0947 70.944 46.114 71.1644 46.1284 71.3804C46.1573 71.7606 46.4363 71.9853 46.8499 72.0285C47.0808 72.0544 47.2924 71.9853 47.4848 71.8729C47.5666 71.8254 47.6388 71.7692 47.7013 71.7044C47.7253 71.6742 47.7542 71.6483 47.7783 71.6223C47.8648 71.5403 47.7927 71.5575 47.557 71.6742C47.4367 71.644 47.3165 71.6137 47.1914 71.5878C47.153 71.5489 47.1097 71.51 47.0712 71.4711C47.0375 71.3631 47.0038 71.2551 46.975 71.1428C46.975 71.1601 46.975 71.1773 46.9798 71.1946C47.0135 71.0866 47.0471 70.9786 47.076 70.8663C47.0664 70.8792 47.0568 70.8965 47.0471 70.9095C46.5565 71.6223 47.8071 72.2747 48.2929 71.5619C48.5815 71.1428 48.341 70.5984 47.836 70.4342C47.5714 70.3478 47.3021 70.3651 47.0568 70.4861C46.9557 70.5336 46.8692 70.6027 46.7874 70.6762C46.7681 70.6934 46.7537 70.7151 46.7345 70.7323C46.6383 70.8187 46.6768 70.8187 46.8499 70.7323C47.0904 70.9484 47.3309 71.1644 47.5714 71.3804C47.557 71.1601 47.5378 70.9397 47.5233 70.7237C47.48 70.1491 46.773 69.8855 46.292 70.2657C45.8302 70.633 45.5127 71.0909 45.3107 71.6094C45.7725 71.6094 46.239 71.6094 46.7008 71.6094C46.6094 71.3458 46.6383 71.1428 46.7537 70.8922C46.9028 70.5682 46.5902 70.1793 46.2487 70.0929C45.835 69.9892 45.5127 70.2225 45.3636 70.5466Z" fill="#727272"/>
<path d="M44.7623 59.188C44.8008 59.5509 44.8441 59.9181 44.8826 60.2811C44.9163 60.6008 45.1279 60.8773 45.5079 60.9162C45.8542 60.9551 46.2102 60.7693 46.3016 60.4539C46.3785 60.1774 46.4843 59.9268 46.6383 59.6805C46.2246 59.6805 45.8061 59.6805 45.3925 59.6805C45.4646 59.8015 45.5368 59.9225 45.6041 60.0391C45.8687 60.4841 46.5709 60.4323 46.8499 60.0391C46.874 60.0046 46.9076 59.9743 46.9076 59.9614C46.9846 59.9009 46.9317 59.9052 46.7585 59.9743C46.6816 60.0132 46.6046 60.0218 46.5276 60.0089C46.4411 59.9311 46.3545 59.8533 46.2679 59.7756C46.2631 59.7583 46.2583 59.741 46.2535 59.7237C46.5324 60.5144 47.9274 60.1774 47.6436 59.3781C47.4993 58.972 47.1048 58.7171 46.6238 58.73C46.1573 58.743 45.8302 59.0541 45.5993 59.3824C46.013 59.3824 46.4314 59.3824 46.8451 59.3824C46.7729 59.2614 46.7008 59.1405 46.6335 59.0238C46.3833 58.6004 45.6426 58.6047 45.3877 59.0238C45.1808 59.3651 45.0173 59.728 44.9066 60.1082C45.378 60.1644 45.8494 60.2249 46.3256 60.2811C46.2871 59.9181 46.2438 59.5509 46.2054 59.188C46.1669 58.838 45.9023 58.5399 45.4839 58.5399C45.1231 58.5399 44.7239 58.838 44.7623 59.188Z" fill="#727272"/>
<path d="M41.1887 51.9425C41.3715 52.3573 41.5976 52.7029 41.9151 53.0486C42.2806 53.4461 42.9685 53.1868 43.1224 52.7634C43.233 52.4524 43.2811 52.1154 43.2474 51.7913C42.8001 51.8993 42.3528 52.0074 41.9006 52.1197C42.0401 52.3616 42.2373 52.582 42.473 52.7548C42.7761 52.9751 43.1993 53.0183 43.4927 52.7548C43.7477 52.5258 43.7958 52.0592 43.4927 51.8389C43.4062 51.7784 43.3244 51.7092 43.2571 51.6358C43.1849 51.5537 43.3003 51.7006 43.2378 51.6099C43.2041 51.5623 43.1753 51.5148 43.1464 51.4673C42.9973 51.2081 42.6269 51.0914 42.3287 51.1649C42.0449 51.234 41.7707 51.5105 41.7996 51.7913C41.8285 52.0635 41.8188 52.1715 41.7275 52.4178C42.1315 52.3227 42.5307 52.2277 42.9348 52.1326C42.8723 52.0678 42.8097 51.9858 42.7376 51.8734C42.7039 51.8216 42.6702 51.7654 42.6366 51.7136C42.6269 51.7006 42.55 51.5364 42.574 51.6012C42.4297 51.2772 42.093 51.0482 41.6842 51.1476C41.3475 51.2297 41.0444 51.6142 41.1887 51.9425Z" fill="#727272"/>
<path d="M48.4756 51.4414C48.5333 51.7136 48.6488 51.9772 48.8075 52.2191C48.9711 52.4654 49.3126 52.595 49.6204 52.5172C49.9475 52.4351 50.1207 52.1802 50.1495 51.8908C50.1832 51.5883 50.2169 51.2816 50.2505 50.9791C49.8898 51.1649 49.529 51.3507 49.1635 51.5408C49.3847 51.6877 49.606 51.8389 49.8272 51.9858C50.1399 52.1932 50.6353 52.0333 50.8133 51.7525C51.0298 51.4241 50.8662 51.0742 50.5536 50.8668C50.3323 50.7199 50.111 50.5687 49.8898 50.4218C49.6878 50.2879 49.3655 50.3138 49.1635 50.4218C48.9278 50.5471 48.8316 50.7458 48.8075 50.9835C48.7738 51.2859 48.7402 51.5926 48.7065 51.8951C49.1538 51.7871 49.6012 51.6791 50.0533 51.5667C49.9379 51.3939 49.909 51.3118 49.8657 51.1001C49.7936 50.7545 49.3318 50.5601 48.9759 50.6465C48.5814 50.7415 48.4083 51.0958 48.4756 51.4414Z" fill="#727272"/>
<path d="M51.6793 59.2182C51.7466 59.5768 51.8428 59.9224 51.9727 60.2681C52.1218 60.6785 52.6028 60.8513 53.0309 60.6569C53.2954 60.5359 53.4638 60.3113 53.5311 60.0564C53.5648 59.9397 53.5696 59.8144 53.5792 59.6891C53.5792 59.6459 53.584 59.6027 53.5888 59.5595C53.5792 59.741 53.4445 59.8576 53.18 59.9181C53.0597 59.8879 52.9395 59.8576 52.8144 59.8317C53.382 60.0823 53.8245 60.2508 54.4739 60.1212C55.3782 59.9397 54.9982 58.6868 54.0891 58.8726C53.863 58.9201 53.7331 58.7991 53.5407 58.7127C53.204 58.5658 52.8192 58.5874 52.5258 58.7948C52.3046 58.9503 52.2035 59.1663 52.1651 59.4126C52.1506 59.5077 52.1458 59.5984 52.1362 59.6934C52.1266 59.7755 52.1314 59.7798 52.141 59.715C52.0929 59.8619 52.1458 59.8015 52.3046 59.5422C52.6557 59.6718 53.0116 59.8015 53.3628 59.9311C53.2377 59.5854 53.1415 59.2398 53.0694 58.8812C53.002 58.5356 52.5306 58.3411 52.1795 58.4275C51.7755 58.5183 51.6119 58.8726 51.6793 59.2182Z" fill="#727272"/>
<path d="M53.3579 68.5936C53.3098 68.922 53.2569 69.2503 53.2088 69.5787C53.1655 69.8682 53.2376 70.1533 53.5407 70.3089C53.7908 70.4428 54.2237 70.4298 54.4161 70.2095C54.5219 70.0842 54.6277 69.9805 54.7961 69.9287C54.493 69.7213 54.1852 69.5139 53.8822 69.3022C53.8918 69.5614 53.8966 69.8206 53.9062 70.0799C53.9207 70.5119 54.3536 70.8057 54.8201 70.7063C55.051 70.6588 55.2434 70.5551 55.4262 70.4255L55.6042 70.3002C55.5897 70.2829 55.3589 70.2959 55.3059 70.244C55.2434 70.149 55.1809 70.0539 55.1184 69.9589C55.128 69.9805 55.1328 70.0021 55.1424 70.0237C55.4454 70.8057 56.8403 70.4687 56.5325 69.6781C56.3642 69.2503 55.9794 69.0084 55.4695 69.0214C55.2627 69.0257 55.0462 69.0862 54.8682 69.1812C54.7239 69.259 54.5893 69.4188 54.4257 69.4534C54.7287 69.6608 55.0366 69.8682 55.3396 70.0799C55.33 69.8206 55.3252 69.5614 55.3156 69.3022C55.3059 68.9047 54.8586 68.5375 54.4017 68.6757C54.0024 68.801 53.6465 68.9911 53.3867 69.2935C53.7908 69.5053 54.19 69.7126 54.5941 69.9243C54.6422 69.596 54.6951 69.2676 54.7432 68.9393C54.7961 68.5936 54.6518 68.2437 54.2381 68.14C53.911 68.0579 53.4108 68.2437 53.3579 68.5936Z" fill="#727272"/>
<path d="M51.285 79.3256C51.184 79.6929 51.083 80.0601 50.9868 80.4273C50.8954 80.7643 51.1022 81.1359 51.4918 81.2266C51.8381 81.3087 52.17 81.2482 52.4538 81.0452C52.6799 80.881 52.7617 80.6261 52.9685 80.4662C52.8627 80.5224 52.7569 80.5786 52.651 80.6347C52.6847 80.6218 52.7184 80.6088 52.7569 80.5958C52.627 80.5958 52.5019 80.5958 52.3721 80.5958C52.4057 80.6002 52.4394 80.6088 52.4779 80.6131C52.3336 80.5137 52.1893 80.4144 52.045 80.315C52.0354 80.2632 52.0402 80.2761 52.0546 80.3625C52.0883 80.436 52.1219 80.5094 52.1604 80.5829C52.2566 80.7254 52.4057 80.8248 52.5693 80.8896C52.7424 80.9588 52.9348 80.9674 53.1224 80.9328C53.185 80.9285 53.2475 80.9112 53.3052 80.8896C53.589 80.8075 53.5313 80.7816 53.132 80.8162C53.0455 80.7384 52.9589 80.6606 52.8723 80.5829C52.8819 80.5958 52.8964 80.6131 52.906 80.6261C52.8723 80.5181 52.8386 80.4101 52.8098 80.2977C52.8098 80.315 52.8098 80.3366 52.805 80.3539C52.7617 81.1877 54.2047 81.1877 54.248 80.3539C54.2672 79.9996 53.9979 79.7015 53.6275 79.5978C53.4543 79.5503 53.2619 79.546 53.0839 79.5848C53.0214 79.5978 52.7761 79.641 52.8483 79.6497C52.9685 79.6799 53.0888 79.7101 53.2138 79.7361C53.1898 79.7231 53.1705 79.7058 53.1465 79.6929C53.2331 79.7706 53.3196 79.8484 53.4062 79.9262C53.3725 79.8657 53.2956 79.6367 53.1753 79.5244C52.9829 79.3515 52.6318 79.2738 52.3721 79.3386C52.1604 79.3904 51.9776 79.5028 51.8333 79.6453C51.7564 79.7231 51.689 79.8095 51.6313 79.9002C51.6121 79.9305 51.5976 79.9607 51.5784 79.9866C51.4437 80.1508 51.5447 80.1465 51.8814 79.9694C52.0498 80.2372 52.2181 80.5008 52.3865 80.7687C52.4875 80.4014 52.5885 80.0342 52.6847 79.6669C52.8964 78.859 51.5063 78.5134 51.285 79.3256Z" fill="#727272"/>
<path d="M49.7554 87.1198C49.8612 87.1932 49.967 87.2666 50.0728 87.3401C50.3807 87.5561 50.8809 87.3833 51.0589 87.1068C51.2753 86.7741 51.1118 86.4328 50.7991 86.2211C50.6933 86.1476 50.5875 86.0742 50.4817 86.0007C50.1738 85.7847 49.6736 85.9575 49.4956 86.2341C49.2792 86.5667 49.4475 86.9037 49.7554 87.1198Z" fill="#727272"/>
</g>
<defs>
<clipPath id="clip0_5225_41">
<rect width="61" height="46" fill="white"/>
</clipPath>
<clipPath id="clip1_5225_41">
<rect width="59" height="46" fill="white" transform="translate(0 47)"/>
</clipPath>
</defs>
</svg>
